<svg width="16" height="16" viewBox="0 0 16 16" fill="none" xmlns="http://www.w3.org/2000/svg">
<path fill-rule="evenodd" clip-rule="evenodd" d="M1.33333 8.00004C1.33333 4.31814 4.3181 1.33337 8 1.33337C11.6819 1.33337 14.6667 4.31814 14.6667 8.00004C14.6667 11.6819 11.6819 14.6667 8 14.6667C4.3181 14.6667 1.33333 11.6819 1.33333 8.00004ZM8 2.66671C5.05448 2.66671 2.66666 5.05452 2.66666 8.00004C2.66666 10.9456 5.05448 13.3334 8 13.3334C10.9455 13.3334 13.3333 10.9456 13.3333 8.00004C13.3333 5.05452 10.9455 2.66671 8 2.66671Z" fill="#C9396E"/>
<path fill-rule="evenodd" clip-rule="evenodd" d="M8 4.66663C8.36819 4.66663 8.66667 4.9651 8.66667 5.33329V7.33329H10.6667C11.0349 7.33329 11.3333 7.63177 11.3333 7.99996C11.3333 8.36815 11.0349 8.66663 10.6667 8.66663H8.66667V10.6666C8.66667 11.0348 8.36819 11.3333 8 11.3333C7.63182 11.3333 7.33334 11.0348 7.33334 10.6666V8.66663H5.33334C4.96515 8.66663 4.66667 8.36815 4.66667 7.99996C4.66667 7.63177 4.96515 7.33329 5.33334 7.33329H7.33334V5.33329C7.33334 4.9651 7.63182 4.66663 8 4.66663Z" fill="#C9396E"/>
</svg>
