<svg width="25" height="24" viewBox="0 0 25 24" fill="none" xmlns="http://www.w3.org/2000/svg">
<g clip-path="url(#clip0_51_3997)">
<path d="M22.542 18.7035C22.179 19.542 21.7494 20.3139 21.2516 21.0235C20.5731 21.9908 20.0176 22.6605 19.5895 23.0323C18.9258 23.6426 18.2147 23.9552 17.4532 23.973C16.9066 23.973 16.2473 23.8175 15.48 23.5019C14.7101 23.1878 14.0025 23.0323 13.3556 23.0323C12.6771 23.0323 11.9494 23.1878 11.1711 23.5019C10.3915 23.8175 9.76355 23.9819 9.28342 23.9982C8.55322 24.0293 7.82539 23.7078 7.0989 23.0323C6.63521 22.6279 6.05523 21.9345 5.36043 20.9524C4.61498 19.9035 4.00211 18.6872 3.52198 17.3006C3.00777 15.8029 2.75 14.3526 2.75 12.9484C2.75 11.3401 3.09754 9.95284 3.79367 8.79035C4.34076 7.8566 5.06859 7.12003 5.97953 6.57931C6.89046 6.03858 7.87473 5.76304 8.93469 5.74541C9.51467 5.74541 10.2752 5.92481 11.2204 6.27739C12.1629 6.63116 12.7681 6.81056 13.0334 6.81056C13.2317 6.81056 13.904 6.60079 15.0437 6.18258C16.1214 5.79474 17.031 5.63415 17.7762 5.69741C19.7954 5.86037 21.3124 6.65634 22.3212 8.09037C20.5154 9.18456 19.6221 10.7171 19.6398 12.6831C19.6561 14.2145 20.2117 15.4888 21.3035 16.5006C21.7983 16.9703 22.3509 17.3332 22.9656 17.591C22.8323 17.9776 22.6916 18.348 22.542 18.7035ZM17.911 0.480381C17.911 1.68066 17.4725 2.80135 16.5984 3.83865C15.5437 5.0718 14.2679 5.78437 12.8843 5.67193C12.8667 5.52793 12.8565 5.37638 12.8565 5.21713C12.8565 4.06487 13.3581 2.83172 14.2489 1.82345C14.6936 1.31295 15.2592 0.888472 15.9451 0.54986C16.6296 0.216299 17.2769 0.0318332 17.8858 0.000244141C17.9036 0.160702 17.911 0.32117 17.911 0.480365V0.480381Z" fill="black"/>
</g>
<defs>
<clipPath id="clip0_51_3997">
<rect width="24" height="24" fill="white" transform="translate(0.75)"/>
</clipPath>
</defs>
</svg>
