<svg width="16" height="16" viewBox="0 0 16 16" fill="none" xmlns="http://www.w3.org/2000/svg">
<path fill-rule="evenodd" clip-rule="evenodd" d="M1.33398 5.33333C1.33398 3.49238 2.82637 2 4.66732 2H11.334C13.1749 2 14.6673 3.49238 14.6673 5.33333V11.3333C14.6673 13.1743 13.1749 14.6667 11.334 14.6667H4.66732C2.82637 14.6667 1.33398 13.1743 1.33398 11.3333V5.33333ZM4.66732 3.33333C3.56275 3.33333 2.66732 4.22876 2.66732 5.33333V11.3333C2.66732 12.4379 3.56275 13.3333 4.66732 13.3333H11.334C12.4386 13.3333 13.334 12.4379 13.334 11.3333V5.33333C13.334 4.22876 12.4386 3.33333 11.334 3.33333H4.66732Z" fill="#686466"/>
<path fill-rule="evenodd" clip-rule="evenodd" d="M5.33268 1.3335C5.70087 1.3335 5.99935 1.63197 5.99935 2.00016V4.00016C5.99935 4.36835 5.70087 4.66683 5.33268 4.66683C4.96449 4.66683 4.66602 4.36835 4.66602 4.00016V2.00016C4.66602 1.63197 4.96449 1.3335 5.33268 1.3335Z" fill="#686466"/>
<path fill-rule="evenodd" clip-rule="evenodd" d="M4 6.66667C4 6.29848 4.29848 6 4.66667 6H11.3333C11.7015 6 12 6.29848 12 6.66667C12 7.03486 11.7015 7.33333 11.3333 7.33333H4.66667C4.29848 7.33333 4 7.03486 4 6.66667Z" fill="#686466"/>
<path fill-rule="evenodd" clip-rule="evenodd" d="M10 11.3332C10 10.965 10.2985 10.6665 10.6667 10.6665L11.3333 10.6665C11.7015 10.6665 12 10.965 12 11.3332C12 11.7014 11.7015 11.9998 11.3333 11.9998H10.6667C10.2985 11.9998 10 11.7014 10 11.3332Z" fill="#686466"/>
<path fill-rule="evenodd" clip-rule="evenodd" d="M10.6667 1.3335C11.0349 1.3335 11.3333 1.63197 11.3333 2.00016V4.00016C11.3333 4.36835 11.0349 4.66683 10.6667 4.66683C10.2985 4.66683 10 4.36835 10 4.00016V2.00016C10 1.63197 10.2985 1.3335 10.6667 1.3335Z" fill="#686466"/>
</svg>
