<svg width="32" height="32" viewBox="0 0 32 32" fill="none" xmlns="http://www.w3.org/2000/svg">
<path d="M0 16C0 7.16344 7.16344 0 16 0C24.8366 0 32 7.16344 32 16C32 24.8366 24.8366 32 16 32C7.16344 32 0 24.8366 0 16Z" fill="#C9396E"/>
<path fill-rule="evenodd" clip-rule="evenodd" d="M12.2177 11.2373C12.5968 10.1001 13.6611 9.33301 14.8598 9.33301H17.1396C18.3383 9.33301 19.4025 10.1001 19.7816 11.2373C19.824 11.3646 19.9286 11.4614 20.0588 11.4939L20.5956 11.6281C21.8126 11.9324 22.6663 13.0259 22.6663 14.2803V19.333C22.6663 21.174 21.174 22.6663 19.333 22.6663H12.6663C10.8254 22.6663 9.33301 21.174 9.33301 19.333V14.2803C9.33301 13.0259 10.1868 11.9324 11.4038 11.6281L11.9406 11.4939C12.0708 11.4614 12.1753 11.3646 12.2177 11.2373ZM14.8598 10.6663C14.235 10.6663 13.6802 11.0662 13.4827 11.6589C13.2961 12.2187 12.8364 12.6443 12.264 12.7874L11.7272 12.9217C11.1037 13.0775 10.6663 13.6377 10.6663 14.2803V19.333C10.6663 20.4376 11.5618 21.333 12.6663 21.333H19.333C20.4376 21.333 21.333 20.4376 21.333 19.333V14.2803C21.333 13.6377 20.8956 13.0775 20.2722 12.9217L19.7354 12.7874C19.1629 12.6443 18.7033 12.2187 18.5167 11.6589C18.3191 11.0662 17.7644 10.6663 17.1396 10.6663H14.8598Z" fill="white"/>
<path fill-rule="evenodd" clip-rule="evenodd" d="M15.9997 15.3333C15.2633 15.3333 14.6663 15.9303 14.6663 16.6667C14.6663 17.403 15.2633 18 15.9997 18C16.7361 18 17.333 17.403 17.333 16.6667C17.333 15.9303 16.7361 15.3333 15.9997 15.3333ZM13.333 16.6667C13.333 15.1939 14.5269 14 15.9997 14C17.4724 14 18.6663 15.1939 18.6663 16.6667C18.6663 18.1394 17.4724 19.3333 15.9997 19.3333C14.5269 19.3333 13.333 18.1394 13.333 16.6667Z" fill="white"/>
</svg>
