<svg width="16" height="16" viewBox="0 0 16 16" fill="none" xmlns="http://www.w3.org/2000/svg">
<path fill-rule="evenodd" clip-rule="evenodd" d="M4.21799 3.23762C4.59706 2.1004 5.6613 1.33334 6.86002 1.33334H9.13981C10.3385 1.33334 11.4028 2.1004 11.7818 3.23762C11.8243 3.36492 11.9288 3.46172 12.059 3.49426L12.5958 3.62847C13.8128 3.93272 14.6666 5.0262 14.6666 6.28066V11.3333C14.6666 13.1743 13.1742 14.6667 11.3333 14.6667H4.66659C2.82564 14.6667 1.33325 13.1743 1.33325 11.3333V6.28066C1.33325 5.0262 2.18702 3.93272 3.40402 3.62847L3.94084 3.49426C4.07102 3.46172 4.17555 3.36492 4.21799 3.23762ZM6.86002 2.66668C6.2352 2.66668 5.68048 3.0665 5.4829 3.65925C5.29631 4.21903 4.83666 4.64468 4.26422 4.78779L3.7274 4.92199C3.10395 5.07785 2.66659 5.63802 2.66659 6.28066V11.3333C2.66659 12.4379 3.56202 13.3333 4.66659 13.3333H11.3333C12.4378 13.3333 13.3333 12.4379 13.3333 11.3333V6.28066C13.3333 5.63802 12.8959 5.07785 12.2724 4.92199L11.7356 4.78779C11.1632 4.64468 10.7035 4.21903 10.5169 3.65925C10.3194 3.0665 9.76463 2.66668 9.13981 2.66668H6.86002Z" fill="#686466"/>
<path fill-rule="evenodd" clip-rule="evenodd" d="M7.99992 7.33333C7.26354 7.33333 6.66659 7.93029 6.66659 8.66667C6.66659 9.40305 7.26354 10 7.99992 10C8.7363 10 9.33325 9.40305 9.33325 8.66667C9.33325 7.93029 8.7363 7.33333 7.99992 7.33333ZM5.33325 8.66667C5.33325 7.19391 6.52716 6 7.99992 6C9.47268 6 10.6666 7.19391 10.6666 8.66667C10.6666 10.1394 9.47268 11.3333 7.99992 11.3333C6.52716 11.3333 5.33325 10.1394 5.33325 8.66667Z" fill="#686466"/>
</svg>
