<svg width="20" height="20" viewBox="0 0 20 20" fill="none" xmlns="http://www.w3.org/2000/svg">
<path fill-rule="evenodd" clip-rule="evenodd" d="M3.33301 10.8333C3.33301 8.99238 4.82539 7.5 6.66634 7.5H13.333C15.174 7.5 16.6663 8.99238 16.6663 10.8333V15C16.6663 16.8409 15.174 18.3333 13.333 18.3333H6.66634C4.82539 18.3333 3.33301 16.8409 3.33301 15V10.8333ZM6.66634 9.16667C5.74587 9.16667 4.99967 9.91286 4.99967 10.8333V15C4.99967 15.9205 5.74587 16.6667 6.66634 16.6667H13.333C14.2535 16.6667 14.9997 15.9205 14.9997 15V10.8333C14.9997 9.91286 14.2535 9.16667 13.333 9.16667H6.66634Z" fill="#C9396E"/>
<path fill-rule="evenodd" clip-rule="evenodd" d="M6.66699 5.00033C6.66699 3.15938 8.15938 1.66699 10.0003 1.66699C11.8413 1.66699 13.3337 3.15938 13.3337 5.00033V8.33366H11.667V5.00033C11.667 4.07985 10.9208 3.33366 10.0003 3.33366C9.07985 3.33366 8.33366 4.07985 8.33366 5.00033V8.33366H6.66699V5.00033Z" fill="#C9396E"/>
</svg>
