<svg width="14" height="18" viewBox="0 0 14 18" fill="none" xmlns="http://www.w3.org/2000/svg">
<path fill-rule="evenodd" clip-rule="evenodd" d="M0.333008 4.00033C0.333008 2.15938 1.82539 0.666992 3.66634 0.666992H10.333C12.174 0.666992 13.6663 2.15938 13.6663 4.00033V14.0003C13.6663 15.8413 12.174 17.3337 10.333 17.3337H3.66634C1.82539 17.3337 0.333008 15.8413 0.333008 14.0003V4.00033ZM3.66634 2.33366C2.74587 2.33366 1.99967 3.07985 1.99967 4.00033V14.0003C1.99967 14.9208 2.74587 15.667 3.66634 15.667H10.333C11.2535 15.667 11.9997 14.9208 11.9997 14.0003V4.00033C11.9997 3.07985 11.2535 2.33366 10.333 2.33366H3.66634Z" fill="#C9396E"/>
<path fill-rule="evenodd" clip-rule="evenodd" d="M3.66602 0.666992H5.03478C5.79291 0.666992 6.50215 0.988851 6.99935 1.53174C7.49655 0.988851 8.20579 0.666992 8.96392 0.666992H10.3327V2.33366H8.96392C8.58627 2.33366 8.24103 2.54703 8.07213 2.88481C7.63012 3.76884 6.36858 3.76884 5.92656 2.88481C5.75767 2.54703 5.41243 2.33366 5.03478 2.33366H3.66602V0.666992Z" fill="#C9396E"/>
</svg>
