<svg width="20" height="20" viewBox="0 0 20 20" fill="none" xmlns="http://www.w3.org/2000/svg">
<path fill-rule="evenodd" clip-rule="evenodd" d="M15.9981 3.33366C15.8207 3.33366 15.6506 3.40413 15.5252 3.52957L8.96096 10.0938L8.64565 11.355L9.9069 11.0397L16.4711 4.4755C16.5965 4.35007 16.667 4.17993 16.667 4.00254C16.667 3.82514 16.5965 3.65501 16.4711 3.52957C16.3457 3.40413 16.1755 3.33366 15.9981 3.33366ZM14.3467 2.35106C14.7847 1.91306 15.3787 1.66699 15.9981 1.66699C16.6176 1.66699 17.2116 1.91306 17.6496 2.35106C18.0876 2.78906 18.3337 3.38311 18.3337 4.00254C18.3337 4.62196 18.0876 5.21602 17.6496 5.65402L10.9222 12.3814C10.8154 12.4882 10.6816 12.564 10.5351 12.6006L7.70246 13.3088C7.41848 13.3798 7.11807 13.2966 6.91109 13.0896C6.7041 12.8826 6.6209 12.5822 6.69189 12.2982L7.40004 9.46562C7.43667 9.31909 7.51244 9.18527 7.61924 9.07847L14.3467 2.35106Z" fill="#C9396E"/>
<path fill-rule="evenodd" clip-rule="evenodd" d="M12.7441 4.41107C13.0695 4.08563 13.5972 4.08563 13.9226 4.41107L15.5893 6.07774C15.9147 6.40317 15.9147 6.93081 15.5893 7.25625C15.2638 7.58169 14.7362 7.58169 14.4107 7.25625L12.7441 5.58958C12.4186 5.26414 12.4186 4.73651 12.7441 4.41107Z" fill="#C9396E"/>
<path fill-rule="evenodd" clip-rule="evenodd" d="M10.0003 3.33366C6.31843 3.33366 3.33366 6.31843 3.33366 10.0003C3.33366 13.6822 6.31843 16.667 10.0003 16.667C13.6822 16.667 16.667 13.6822 16.667 10.0003V9.58366C16.667 9.12342 17.0401 8.75033 17.5003 8.75033C17.9606 8.75033 18.3337 9.12342 18.3337 9.58366V10.0003C18.3337 14.6027 14.6027 18.3337 10.0003 18.3337C5.39795 18.3337 1.66699 14.6027 1.66699 10.0003C1.66699 5.39795 5.39795 1.66699 10.0003 1.66699H10.417C10.8772 1.66699 11.2503 2.04009 11.2503 2.50033C11.2503 2.96056 10.8772 3.33366 10.417 3.33366H10.0003Z" fill="#C9396E"/>
</svg>
