<svg width="16" height="16" viewBox="0 0 16 16" fill="none" xmlns="http://www.w3.org/2000/svg">
<path fill-rule="evenodd" clip-rule="evenodd" d="M4.66634 2.66634C3.56177 2.66634 2.66634 3.56177 2.66634 4.66634V11.333C2.66634 12.4376 3.56177 13.333 4.66634 13.333H11.333C12.4376 13.333 13.333 12.4376 13.333 11.333V8.66634C13.333 8.29815 13.6315 7.99967 13.9997 7.99967C14.3679 7.99967 14.6663 8.29815 14.6663 8.66634V11.333C14.6663 13.174 13.174 14.6663 11.333 14.6663H4.66634C2.82539 14.6663 1.33301 13.174 1.33301 11.333V4.66634C1.33301 2.82539 2.82539 1.33301 4.66634 1.33301H7.33301C7.7012 1.33301 7.99967 1.63148 7.99967 1.99967C7.99967 2.36786 7.7012 2.66634 7.33301 2.66634H4.66634Z" fill="#686466"/>
<path fill-rule="evenodd" clip-rule="evenodd" d="M14.4711 1.52827C14.7314 1.78862 14.7314 2.21073 14.4711 2.47108L8.47108 8.47108C8.21073 8.73143 7.78862 8.73143 7.52827 8.47108C7.26792 8.21073 7.26792 7.78862 7.52827 7.52827L13.5283 1.52827C13.7886 1.26792 14.2107 1.26792 14.4711 1.52827Z" fill="#686466"/>
<path fill-rule="evenodd" clip-rule="evenodd" d="M9.33301 1.99967C9.33301 1.63148 9.63148 1.33301 9.99967 1.33301H13.9997C14.3679 1.33301 14.6663 1.63148 14.6663 1.99967V5.99967C14.6663 6.36786 14.3679 6.66634 13.9997 6.66634C13.6315 6.66634 13.333 6.36786 13.333 5.99967V2.66634H9.99967C9.63148 2.66634 9.33301 2.36786 9.33301 1.99967Z" fill="#686466"/>
</svg>
