<svg width="25" height="24" viewBox="0 0 25 24" fill="none" xmlns="http://www.w3.org/2000/svg">
<path fill-rule="evenodd" clip-rule="evenodd" d="M7.07221 3.29236C7.73853 3.06526 8.4361 3.00024 9.05296 3.00024C10.5177 3.00024 11.622 3.62557 12.5005 4.25321C13.3859 3.62076 14.4829 3.00023 15.9649 3.00024C16.6237 3.00024 17.2977 3.09233 17.9508 3.3096C21.9402 4.60188 23.2253 8.89716 22.1114 12.4254L22.1067 12.4403L22.1016 12.455C21.4852 14.2146 20.4772 15.8216 19.1548 17.1363L19.1491 17.142L19.1433 17.1475C17.2965 18.9255 15.2227 20.5316 13.0148 21.8574L12.4935 22.1704L11.9758 21.8517C9.77266 20.4954 7.73794 18.9324 5.86874 17.14L5.86103 17.1326L5.85348 17.125C4.54238 15.8128 3.53447 14.2176 2.90889 12.4597L2.90366 12.445L2.89889 12.4301C1.76354 8.89412 3.05506 4.60399 7.07221 3.29236ZM9.05296 5.00024C8.55963 5.00024 8.09908 5.05459 7.71316 5.18689L7.70573 5.18943L7.69826 5.19186C5.01011 6.06644 3.90905 9.01178 4.79844 11.804C5.32404 13.274 6.16728 14.6073 7.26086 15.7039C8.87537 17.2512 10.622 18.6186 12.5056 19.8231C14.3831 18.6439 16.1551 17.2475 17.7503 15.7124C18.8496 14.6179 19.6916 13.2779 20.2088 11.8087C21.0859 9.00796 19.9776 6.06655 17.3313 5.21125L17.3224 5.20837L17.3224 5.20832C16.8987 5.06699 16.4403 5.00024 15.9649 5.00024C14.8741 5.00024 14.12 5.52522 13.1049 6.29637L12.499 6.75669L11.8938 6.29542C10.8949 5.53406 10.1243 5.00024 9.05296 5.00024Z" fill="#686466"/>
</svg>
