<svg width="25" height="24" viewBox="0 0 25 24" fill="none" xmlns="http://www.w3.org/2000/svg">
<path fill-rule="evenodd" clip-rule="evenodd" d="M16.5003 2C17.0526 2 17.5003 2.44772 17.5003 3L21.0004 7L20.5004 19.5C20.5004 20.0523 16.0527 20.5 15.5004 20.5C14.9481 20.5 15.5003 6.55228 15.5003 6V3C15.5003 2.44772 15.948 2 16.5003 2Z" fill="#C9396E"/>
<path fill-rule="evenodd" clip-rule="evenodd" d="M2.5 8C2.5 5.23858 4.73858 3 7.5 3H17.5C20.2614 3 22.5 5.23858 22.5 8V17C22.5 19.7614 20.2614 22 17.5 22H7.5C4.73858 22 2.5 19.7614 2.5 17V8ZM7.5 5C5.84315 5 4.5 6.34315 4.5 8V17C4.5 18.6569 5.84315 20 7.5 20H17.5C19.1569 20 20.5 18.6569 20.5 17V8C20.5 6.34315 19.1569 5 17.5 5H7.5Z" fill="#C9396E"/>
<path fill-rule="evenodd" clip-rule="evenodd" d="M8.50016 2C9.05244 2 9.50016 2.44772 9.50016 3L15.5002 5L15.5 20C15.5 20.5523 5.55228 20.5 5 20.5C4.44772 20.5 3.5 7.55228 3.5 7L7.50016 3C7.50016 2.44772 7.94787 2 8.50016 2Z" fill="#C9396E"/>
<path fill-rule="evenodd" clip-rule="evenodd" d="M6.5 10C6.5 9.44772 6.94772 9 7.5 9H17.5C18.0523 9 18.5 9.44772 18.5 10C18.5 10.5523 18.0523 11 17.5 11H7.5C6.94772 11 6.5 10.5523 6.5 10Z" fill="white"/>
<path fill-rule="evenodd" clip-rule="evenodd" d="M15.5 17C15.5 16.4477 15.9477 16 16.5 16L17.5 16C18.0523 16 18.5 16.4477 18.5 17C18.5 17.5523 18.0523 18 17.5 18H16.5C15.9477 18 15.5 17.5523 15.5 17Z" fill="white"/>
</svg>
