<svg width="25" height="24" viewBox="0 0 25 24" fill="none" xmlns="http://www.w3.org/2000/svg">
<path d="M12.7498 9.81815V14.4654H19.2079C18.9243 15.96 18.0733 17.2255 16.797 18.0764L20.6915 21.0982C22.9606 19.0037 24.2697 15.9273 24.2697 12.2728C24.2697 11.4219 24.1933 10.6037 24.0515 9.81828L12.7498 9.81815Z" fill="#4285F4"/>
<path d="M6.02461 14.284L5.14625 14.9564L2.03711 17.3782C4.01165 21.2945 8.05862 24 12.7495 24C15.9894 24 18.7057 22.9309 20.6912 21.0982L16.7967 18.0764C15.7276 18.7964 14.364 19.2328 12.7495 19.2328C9.62951 19.2328 6.97868 17.1273 6.02952 14.291L6.02461 14.284Z" fill="#34A853"/>
<path d="M2.03718 6.62183C1.21904 8.23631 0.75 10.0581 0.75 11.9999C0.75 13.9417 1.21904 15.7636 2.03718 17.378C2.03718 17.3889 6.02997 14.2799 6.02997 14.2799C5.78998 13.5599 5.64812 12.7963 5.64812 11.9998C5.64812 11.2033 5.78998 10.4398 6.02997 9.71976L2.03718 6.62183Z" fill="#FBBC05"/>
<path d="M12.7497 4.77818C14.517 4.77818 16.0879 5.38907 17.3425 6.56727L20.7788 3.13095C18.6952 1.18917 15.9898 0 12.7497 0C8.05887 0 4.01165 2.69454 2.03711 6.62183L6.02978 9.72001C6.97882 6.88362 9.62976 4.77818 12.7497 4.77818Z" fill="#EA4335"/>
</svg>
