<svg width="24" height="24" viewBox="0 0 24 24" fill="none" xmlns="http://www.w3.org/2000/svg">
<path fill-rule="evenodd" clip-rule="evenodd" d="M15.093 2.78908L20.479 7.24233C21.4494 8.04465 22 9.26112 22 10.5304V18.538C22 20.206 20.7136 21.6641 19 21.6641H17C15.3431 21.6641 14 20.3209 14 18.6641V15.3489C14 14.6685 13.4956 14.2228 13 14.2228H11C10.5044 14.2228 10 14.6685 10 15.3489V18.6641C10 20.3209 8.65685 21.6641 7 21.6641H5C3.28643 21.6641 2 20.206 2 18.538V10.5304C2 9.26112 2.55059 8.04465 3.52097 7.24233L8.90703 2.78908C10.7213 1.28905 13.2787 1.28906 15.093 2.78908Z" fill="#C9396E"/>
</svg>
