<svg width="12" height="14" viewBox="0 0 12 14" fill="none" xmlns="http://www.w3.org/2000/svg">
<path fill-rule="evenodd" clip-rule="evenodd" d="M6.00008 1.66671C4.95042 1.66671 3.93649 2.10503 3.18343 2.8972C2.42929 3.69052 2.00008 4.77338 2.00008 5.90913C2.00008 7.56272 3.02429 9.17682 4.16213 10.4403C4.71934 11.059 5.27856 11.5658 5.69901 11.918C5.81035 12.0112 5.9116 12.0934 6.00008 12.1635C6.08856 12.0934 6.18981 12.0112 6.30115 11.918C6.7216 11.5658 7.28082 11.059 7.83803 10.4403C8.97587 9.17682 10.0001 7.56272 10.0001 5.90913C10.0001 4.77338 9.57087 3.69052 8.81673 2.8972C8.06368 2.10503 7.04974 1.66671 6.00008 1.66671ZM6.00008 13C5.6173 13.5459 5.61713 13.5457 5.61695 13.5456L5.61527 13.5444L5.61155 13.5418L5.59913 13.533C5.58867 13.5255 5.5739 13.5149 5.5551 13.5012C5.51751 13.4738 5.4638 13.4341 5.39626 13.3828C5.26124 13.2802 5.07059 13.1309 4.84282 12.9401C4.38826 12.5593 3.78082 12.0093 3.17136 11.3325C1.97587 10.0051 0.666748 8.07373 0.666748 5.90913C0.666748 4.44094 1.22087 3.0265 2.21707 1.97856C3.21435 0.929463 4.57439 0.333374 6.00008 0.333374C7.42578 0.333374 8.78581 0.929463 9.7831 1.97856C10.7793 3.0265 11.3334 4.44094 11.3334 5.90913C11.3334 8.07373 10.0243 10.0051 8.8288 11.3325C8.21934 12.0093 7.6119 12.5593 7.15734 12.9401C6.92957 13.1309 6.73892 13.2802 6.6039 13.3828C6.53636 13.4341 6.48265 13.4738 6.44506 13.5012C6.42627 13.5149 6.41149 13.5255 6.40104 13.533L6.38861 13.5418L6.38489 13.5444L6.38366 13.5453C6.38348 13.5454 6.38286 13.5459 6.00008 13ZM6.00008 13L6.38286 13.5459C6.15311 13.707 5.84671 13.7067 5.61695 13.5456L6.00008 13Z" fill="#686466"/>
<path fill-rule="evenodd" clip-rule="evenodd" d="M6.00016 4.33333C5.26378 4.33333 4.66683 4.93029 4.66683 5.66667C4.66683 6.40305 5.26378 7 6.00016 7C6.73654 7 7.3335 6.40305 7.3335 5.66667C7.3335 4.93029 6.73654 4.33333 6.00016 4.33333ZM3.3335 5.66667C3.3335 4.19391 4.5274 3 6.00016 3C7.47292 3 8.66683 4.19391 8.66683 5.66667C8.66683 7.13943 7.47292 8.33333 6.00016 8.33333C4.5274 8.33333 3.3335 7.13943 3.3335 5.66667Z" fill="#686466"/>
</svg>
