<svg width="16" height="16" viewBox="0 0 16 16" fill="none" xmlns="http://www.w3.org/2000/svg">
<path fill-rule="evenodd" clip-rule="evenodd" d="M2.66675 8.66667C2.66675 7.19391 3.86066 6 5.33341 6H10.6667C12.1395 6 13.3334 7.19391 13.3334 8.66667V12C13.3334 13.4728 12.1395 14.6667 10.6667 14.6667H5.33341C3.86066 14.6667 2.66675 13.4728 2.66675 12V8.66667ZM5.33341 7.33333C4.59703 7.33333 4.00008 7.93029 4.00008 8.66667V12C4.00008 12.7364 4.59703 13.3333 5.33341 13.3333H10.6667C11.4031 13.3333 12.0001 12.7364 12.0001 12V8.66667C12.0001 7.93029 11.4031 7.33333 10.6667 7.33333H5.33341Z" fill="#686466"/>
<path fill-rule="evenodd" clip-rule="evenodd" d="M5.33325 4.00001C5.33325 2.52725 6.52716 1.33334 7.99992 1.33334C9.47268 1.33334 10.6666 2.52725 10.6666 4.00001V6.66668H9.33325V4.00001C9.33325 3.26363 8.7363 2.66668 7.99992 2.66668C7.26354 2.66668 6.66659 3.26363 6.66659 4.00001V6.66668H5.33325V4.00001Z" fill="#686466"/>
</svg>
