<svg width="20" height="20" viewBox="0 0 20 20" fill="none" xmlns="http://www.w3.org/2000/svg">
<path fill-rule="evenodd" clip-rule="evenodd" d="M7.5 5.83366C7.5 3.53247 8.71256 1.66699 10.2083 1.66699H15.625C17.1208 1.66699 18.3333 3.53247 18.3333 5.83366V14.167C18.3333 16.4682 17.1208 18.3337 15.625 18.3337H10.2083C8.71256 18.3337 7.5 16.4682 7.5 14.167V5.83366ZM10.2083 3.33366C9.31087 3.33366 8.58333 4.45295 8.58333 5.83366V11.667V14.167C8.58333 15.5477 9.31087 16.667 10.2083 16.667H15.625C16.5225 16.667 17.25 15.5477 17.25 14.167V5.83366C17.25 4.45295 16.5225 3.33366 15.625 3.33366H10.2083Z" fill="#C73B3B"/>
<path d="M6 8H7H8.5H11V12H6V8Z" fill="white"/>
<path fill-rule="evenodd" clip-rule="evenodd" d="M1.66699 9.99967C1.66699 10.4599 2.30126 10.833 3.08366 10.833L14.417 10.833C15.1994 10.833 15.8337 10.4599 15.8337 9.99967C15.8337 9.53944 15.1994 9.16634 14.417 9.16634L3.08366 9.16634C2.30126 9.16634 1.66699 9.53944 1.66699 9.99967Z" fill="#C73B3B"/>
<path fill-rule="evenodd" clip-rule="evenodd" d="M6.42291 6.07709C6.74835 6.40252 6.74835 6.93016 6.42291 7.2556L3.67884 9.99967L6.42291 12.7438C6.74835 13.0692 6.74835 13.5968 6.42291 13.9223C6.09748 14.2477 5.56984 14.2477 5.2444 13.9223L1.91107 10.5889C1.58563 10.2635 1.58563 9.73586 1.91107 9.41042L5.2444 6.07709C5.56984 5.75165 6.09748 5.75165 6.42291 6.07709Z" fill="#C73B3B"/>
</svg>
