<svg width="25" height="24" viewBox="0 0 25 24" fill="none" xmlns="http://www.w3.org/2000/svg">
<path fill-rule="evenodd" clip-rule="evenodd" d="M7.5 6C7.5 3.79086 9.29086 2 11.5 2H13.5C15.7091 2 17.5 3.79086 17.5 6V12C17.5 14.2091 15.7091 16 13.5 16H11.5C9.29086 16 7.5 14.2091 7.5 12V6ZM11.5 4C10.3954 4 9.5 4.89543 9.5 6V12C9.5 13.1046 10.3954 14 11.5 14H13.5C14.6046 14 15.5 13.1046 15.5 12V6C15.5 4.89543 14.6046 4 13.5 4H11.5Z" fill="#C9396E"/>
<path fill-rule="evenodd" clip-rule="evenodd" d="M5.5 10C6.05228 10 6.5 10.4477 6.5 11V12C6.5 14.7614 8.73858 17 11.5 17H13.5C16.2614 17 18.5 14.7614 18.5 12V11C18.5 10.4477 18.9477 10 19.5 10C20.0523 10 20.5 10.4477 20.5 11V12C20.5 15.866 17.366 19 13.5 19H11.5C7.63401 19 4.5 15.866 4.5 12V11C4.5 10.4477 4.94772 10 5.5 10Z" fill="#C9396E"/>
<path fill-rule="evenodd" clip-rule="evenodd" d="M12.5 17C13.0523 17 13.5 17.4477 13.5 18V21C13.5 21.5523 13.0523 22 12.5 22C11.9477 22 11.5 21.5523 11.5 21L11.5 18C11.5 17.4477 11.9477 17 12.5 17Z" fill="#C9396E"/>
</svg>
