<svg width="245" height="205" viewBox="0 0 245 205" fill="none" xmlns="http://www.w3.org/2000/svg">
<g clip-path="url(#clip0_298_9854)">
<path d="M188.668 40.8691L205.105 159.32C205.588 162.816 204.67 166.362 202.551 169.178C200.432 171.994 197.286 173.85 193.806 174.336L33.3862 196.803C31.664 197.047 29.9109 196.947 28.2271 196.51C26.5433 196.072 24.9619 195.305 23.5734 194.253C22.1849 193.201 21.0165 191.885 20.1351 190.378C19.2538 188.872 18.6767 187.206 18.437 185.476L1.97656 67.0254L188.668 40.8691Z" fill="url(#paint0_linear_298_9854)"/>
<path d="M186.854 27.8378L188.667 40.8925L1.92981 67.0489L0.116374 53.994C-0.36723 50.4977 0.55146 46.9516 2.67038 44.1356C4.78929 41.3195 7.93492 39.4642 11.4155 38.9775L171.835 16.4878C173.563 16.2405 175.323 16.338 177.014 16.7748C178.705 17.2116 180.293 17.9791 181.688 19.0334C183.083 20.0877 184.258 21.408 185.144 22.9188C186.03 24.4295 186.611 26.1011 186.854 27.8378Z" fill="#E77FAD"/>
<path d="M41.2214 43.3915C41.4317 44.9053 41.1906 46.4478 40.5285 47.8239C39.8664 49.2001 38.813 50.3482 37.5015 51.1231C36.19 51.8981 34.6792 52.2651 33.1601 52.1778C31.6409 52.0904 30.1817 51.5526 28.9667 50.6324C27.7518 49.7122 26.8357 48.4509 26.3342 47.0078C25.8328 45.5648 25.7684 44.0048 26.1494 42.525C26.5303 41.0452 27.3394 39.7121 28.4744 38.6941C29.6095 37.6761 31.0194 37.019 32.5262 36.8057C33.5281 36.6608 34.5487 36.7165 35.5291 36.9696C36.5095 37.2226 37.4304 37.6681 38.2387 38.2803C39.0469 38.8924 39.7266 39.6592 40.2385 40.5365C40.7504 41.4137 41.0845 42.384 41.2214 43.3915Z" fill="url(#paint1_linear_298_9854)"/>
<path d="M159.699 26.8571C159.91 28.3766 159.668 29.9249 159.003 31.3059C158.338 32.687 157.28 33.8388 155.963 34.6156C154.645 35.3924 153.129 35.7592 151.604 35.6695C150.079 35.5799 148.615 35.0379 147.397 34.1122C146.179 33.1864 145.262 31.9185 144.762 30.4689C144.261 29.0194 144.201 27.4533 144.587 25.9689C144.973 24.4845 145.789 23.1486 146.931 22.1303C148.073 21.1119 149.491 20.4568 151.004 20.248C153.029 19.9685 155.082 20.5074 156.712 21.7464C158.342 22.9854 159.417 24.8234 159.699 26.8571Z" fill="url(#paint2_linear_298_9854)"/>
<path d="M29.7357 16.6513C28.9812 16.7546 28.2544 17.0064 27.5969 17.3923C26.9394 17.7783 26.3641 18.2907 25.9041 18.9003C25.4441 19.5099 25.1083 20.2047 24.9161 20.9449C24.7238 21.685 24.6788 22.456 24.7836 23.2137L27.6898 44.2321C27.9145 45.7578 28.7287 47.1331 29.9559 48.0599C31.1832 48.9867 32.7246 49.3902 34.2461 49.1831C35.0006 49.0798 35.7274 48.828 36.3849 48.4421C37.0424 48.0561 37.6177 47.5437 38.0777 46.9341C38.5377 46.3245 38.8735 45.6297 39.0657 44.8895C39.258 44.1494 39.303 43.3784 39.1982 42.6207L36.292 21.6023C36.0731 20.0738 35.2603 18.6948 34.0316 17.7669C32.8028 16.839 31.2582 16.4379 29.7357 16.6513Z" fill="#C9396E"/>
<path d="M148.19 0.0467999C146.668 0.266696 145.295 1.08309 144.372 2.31736C143.448 3.55163 143.048 5.10323 143.261 6.63256L146.167 27.651C146.27 28.409 146.521 29.1391 146.905 29.7995C147.289 30.46 147.799 31.0378 148.406 31.4999C149.013 31.9619 149.705 32.2992 150.441 32.4924C151.178 32.6855 151.946 32.7307 152.7 32.6254C154.226 32.4111 155.605 31.597 156.533 30.3621C157.462 29.1272 157.864 27.5725 157.652 26.0396L154.746 5.02114C154.533 3.48846 153.722 2.10359 152.493 1.17084C151.263 0.238086 149.716 -0.166203 148.19 0.0467999Z" fill="#C9396E"/>
<path d="M121.826 68.7304L73.8167 75.4797C72.5079 75.6532 71.1837 75.302 70.1307 74.5021C69.0778 73.7023 68.3807 72.5181 68.1904 71.2059C68.0117 69.8929 68.3596 68.5623 69.1574 67.5068C69.9553 66.4513 71.1378 65.7574 72.445 65.5776L120.455 58.8517C121.101 58.7595 121.758 58.7964 122.39 58.9604C123.022 59.1243 123.615 59.4121 124.136 59.807C124.656 60.202 125.094 60.6964 125.424 61.2619C125.754 61.8274 125.969 62.4528 126.058 63.1021C126.149 63.751 126.113 64.4117 125.949 65.0463C125.786 65.6809 125.5 66.2767 125.107 66.7998C124.713 67.3228 124.221 67.7626 123.658 68.0939C123.095 68.4252 122.473 68.6415 121.826 68.7304Z" fill="url(#paint3_linear_298_9854)"/>
<path d="M41.1373 90.8048L21.7031 93.5275C20.495 93.6968 19.6522 94.8178 19.8207 96.0313L21.6513 109.215C21.8198 110.429 22.9358 111.276 24.1439 111.106L43.5781 108.384C44.7862 108.214 45.629 107.093 45.4605 105.88L43.6299 92.6956C43.4614 91.4821 42.3455 90.6355 41.1373 90.8048Z" fill="#F6D4E4"/>
<path d="M68.1373 86.8048L48.7031 89.5275C47.495 89.6968 46.6522 90.8178 46.8207 92.0313L48.6513 105.215C48.8198 106.429 49.9358 107.276 51.1439 107.106L70.5781 104.384C71.7862 104.214 72.629 103.093 72.4605 101.88L70.6299 88.6956C70.4614 87.4821 69.3455 86.6355 68.1373 86.8048Z" fill="#F6D4E4"/>
<path d="M96.1373 82.8048L76.7031 85.5275C75.495 85.6968 74.6522 86.8178 74.8207 88.0313L76.6513 101.215C76.8198 102.429 77.9358 103.276 79.1439 103.106L98.5781 100.384C99.7862 100.214 100.629 99.0933 100.461 97.8797L98.6299 84.6956C98.4614 83.4821 97.3455 82.6355 96.1373 82.8048Z" fill="#F6D4E4"/>
<path d="M123.137 78.8048L103.703 81.5275C102.495 81.6968 101.652 82.8178 101.821 84.0313L103.651 97.2154C103.82 98.4289 104.936 99.2756 106.144 99.1063L125.578 96.3835C126.786 96.2143 127.629 95.0933 127.461 93.8797L125.63 80.6956C125.461 79.4821 124.345 78.6355 123.137 78.8048Z" fill="#F6D4E4"/>
<path d="M149.137 74.8048L129.703 77.5275C128.495 77.6968 127.652 78.8178 127.821 80.0313L129.651 93.2154C129.82 94.4289 130.936 95.2756 132.144 95.1063L151.578 92.3835C152.786 92.2143 153.629 91.0933 153.461 89.8797L151.63 76.6956C151.461 75.4821 150.345 74.6355 149.137 74.8048Z" fill="#F6D4E4"/>
<path d="M177.137 71.8048L157.703 74.5275C156.495 74.6968 155.652 75.8178 155.821 77.0313L157.651 90.2154C157.82 91.4289 158.936 92.2756 160.144 92.1063L179.578 89.3835C180.786 89.2143 181.629 88.0933 181.461 86.8797L179.63 73.6956C179.461 72.4821 178.345 71.6355 177.137 71.8048Z" fill="#F6D4E4"/>
<path d="M44.1373 114.805L24.7031 117.528C23.495 117.697 22.6522 118.818 22.8207 120.031L24.6513 133.215C24.8198 134.429 25.9358 135.276 27.1439 135.106L46.5781 132.384C47.7862 132.214 48.629 131.093 48.4605 129.88L46.6299 116.696C46.4614 115.482 45.3455 114.636 44.1373 114.805Z" fill="#F6D4E4"/>
<path d="M72.1373 110.805L52.7031 113.528C51.495 113.697 50.6522 114.818 50.8207 116.031L52.6513 129.215C52.8198 130.429 53.9358 131.276 55.1439 131.106L74.5781 128.384C75.7862 128.214 76.629 127.093 76.4605 125.88L74.6299 112.696C74.4614 111.482 73.3455 110.636 72.1373 110.805Z" fill="#F6D4E4"/>
<path d="M99.1373 106.805L79.7031 109.528C78.495 109.697 77.6522 110.818 77.8207 112.032L79.6513 125.216C79.8198 126.429 80.9358 127.276 82.1439 127.107L101.578 124.384C102.786 124.215 103.629 123.094 103.461 121.88L101.63 108.696C101.461 107.483 100.345 106.636 99.1373 106.805Z" fill="#F6D4E4"/>
<path d="M126.137 102.805L106.703 105.528C105.495 105.697 104.652 106.818 104.821 108.031L106.651 121.215C106.82 122.429 107.936 123.276 109.144 123.106L128.578 120.384C129.786 120.214 130.629 119.093 130.461 117.88L128.63 104.696C128.461 103.482 127.345 102.636 126.137 102.805Z" fill="#F6D4E4"/>
<path d="M153.137 98.8048L133.703 101.528C132.495 101.697 131.652 102.818 131.821 104.031L133.651 117.215C133.82 118.429 134.936 119.276 136.144 119.106L155.578 116.384C156.786 116.214 157.629 115.093 157.461 113.88L155.63 100.696C155.461 99.4821 154.345 98.6355 153.137 98.8048Z" fill="#F6D4E4"/>
<path d="M180.137 95.8048L160.703 98.5275C159.495 98.6968 158.652 99.8178 158.821 101.031L160.651 114.215C160.82 115.429 161.936 116.276 163.144 116.106L182.578 113.384C183.786 113.214 184.629 112.093 184.461 110.88L182.63 97.6956C182.461 96.4821 181.345 95.6355 180.137 95.8048Z" fill="#F6D4E4"/>
<path d="M48.1373 138.805L28.7031 141.528C27.495 141.697 26.6522 142.818 26.8207 144.031L28.6513 157.215C28.8198 158.429 29.9358 159.276 31.1439 159.106L50.5781 156.384C51.7862 156.214 52.629 155.093 52.4605 153.88L50.6299 140.696C50.4614 139.482 49.3455 138.636 48.1373 138.805Z" fill="#F6D4E4"/>
<path d="M75.1373 134.805L55.7031 137.528C54.495 137.697 53.6522 138.818 53.8207 140.031L55.6513 153.215C55.8198 154.429 56.9358 155.276 58.1439 155.106L77.5781 152.384C78.7862 152.214 79.629 151.093 79.4605 149.88L77.6299 136.696C77.4614 135.482 76.3455 134.636 75.1373 134.805Z" fill="#F6D4E4"/>
<path d="M102.137 130.805L82.7031 133.528C81.495 133.697 80.6522 134.818 80.8207 136.031L82.6513 149.215C82.8198 150.429 83.9358 151.276 85.1439 151.106L104.578 148.384C105.786 148.214 106.629 147.093 106.461 145.88L104.63 132.696C104.461 131.482 103.345 130.636 102.137 130.805Z" fill="#F6D4E4"/>
<path d="M130.137 126.805L110.703 129.528C109.495 129.697 108.652 130.818 108.821 132.031L110.651 145.215C110.82 146.429 111.936 147.276 113.144 147.106L132.578 144.384C133.786 144.214 134.629 143.093 134.461 141.88L132.63 128.696C132.461 127.482 131.345 126.636 130.137 126.805Z" fill="#C9396E"/>
<path d="M156.137 123.805L136.703 126.528C135.495 126.697 134.652 127.818 134.821 129.031L136.651 142.215C136.82 143.429 137.936 144.276 139.144 144.106L158.578 141.384C159.786 141.214 160.629 140.093 160.461 138.88L158.63 125.696C158.461 124.482 157.345 123.636 156.137 123.805Z" fill="#C9396E"/>
<path d="M183.137 119.805L163.703 122.528C162.495 122.697 161.652 123.818 161.821 125.031L163.651 138.215C163.82 139.429 164.936 140.276 166.144 140.106L185.578 137.384C186.786 137.214 187.629 136.093 187.461 134.88L185.63 121.696C185.461 120.482 184.345 119.636 183.137 119.805Z" fill="#F6D4E4"/>
<path d="M51.1373 162.805L31.7031 165.528C30.495 165.697 29.6522 166.818 29.8207 168.031L31.6513 181.215C31.8198 182.429 32.9358 183.276 34.1439 183.106L53.5781 180.384C54.7862 180.214 55.629 179.093 55.4605 177.88L53.6299 164.696C53.4614 163.482 52.3455 162.636 51.1373 162.805Z" fill="#F6D4E4"/>
<path d="M78.1373 158.805L58.7031 161.528C57.495 161.697 56.6522 162.818 56.8207 164.031L58.6513 177.215C58.8198 178.429 59.9358 179.276 61.1439 179.106L80.5781 176.384C81.7862 176.214 82.629 175.093 82.4605 173.88L80.6299 160.696C80.4614 159.482 79.3455 158.636 78.1373 158.805Z" fill="#F6D4E4"/>
<path d="M105.799 154.858L86.3653 157.581C85.1571 157.75 84.3143 158.871 84.4828 160.085L86.3134 173.269C86.4819 174.483 87.5979 175.329 88.806 175.16L108.24 172.437C109.448 172.268 110.291 171.147 110.123 169.933L108.292 156.749C108.124 155.536 107.008 154.689 105.799 154.858Z" fill="#F6D4E4"/>
<path d="M133.137 150.805L113.703 153.528C112.495 153.697 111.652 154.818 111.821 156.031L113.651 169.215C113.82 170.429 114.936 171.276 116.144 171.106L135.578 168.384C136.786 168.214 137.629 167.093 137.461 165.88L135.63 152.696C135.461 151.482 134.345 150.636 133.137 150.805Z" fill="#F6D4E4"/>
<path d="M159.424 147.375L139.99 150.097C138.782 150.267 137.939 151.388 138.108 152.601L139.938 165.785C140.107 166.999 141.223 167.845 142.431 167.676L161.865 164.953C163.073 164.784 163.916 163.663 163.748 162.45L161.917 149.265C161.749 148.052 160.633 147.205 159.424 147.375Z" fill="#F6D4E4"/>
<path d="M187.137 143.805L167.703 146.528C166.495 146.697 165.652 147.818 165.821 149.031L167.651 162.215C167.82 163.429 168.936 164.276 170.144 164.106L189.578 161.384C190.786 161.214 191.629 160.093 191.461 158.88L189.63 145.696C189.461 144.482 188.345 143.636 187.137 143.805Z" fill="#F6D4E4"/>
<path d="M180.018 165.042C180.018 165.203 179.955 165.357 179.841 165.471C179.728 165.585 179.574 165.649 179.414 165.649H175.671C175.508 165.649 175.352 165.586 175.235 165.473C175.118 165.359 175.049 165.205 175.043 165.042C175.043 164.874 175.109 164.714 175.227 164.596C175.345 164.478 175.504 164.411 175.671 164.411H179.414C179.576 164.417 179.73 164.486 179.843 164.604C179.955 164.721 180.018 164.878 180.018 165.042Z" fill="url(#paint4_linear_298_9854)"/>
<circle cx="195.857" cy="157.617" r="15.4786" transform="rotate(-51.4915 195.857 157.617)" fill="#F6F9FF" stroke="#AD2956" stroke-width="3"/>
<rect x="206.768" y="168.458" width="1.54948" height="19.8106" rx="0.774742" transform="rotate(-51.4915 206.768 168.458)" fill="#AD2956" stroke="#AD2956" stroke-width="1.54948"/>
<mask id="path-35-inside-1_298_9854" fill="white">
<path fill-rule="evenodd" clip-rule="evenodd" d="M189.945 160.236C189.337 160.685 189.209 161.543 189.659 162.151C190.109 162.759 190.966 162.887 191.574 162.437L195.427 159.587L198.277 163.44C198.727 164.048 199.584 164.176 200.192 163.726C200.8 163.277 200.928 162.419 200.478 161.811L197.628 157.959L201.481 155.109C202.089 154.659 202.217 153.801 201.768 153.194C201.318 152.586 200.461 152.457 199.853 152.907L196 155.757L193.15 151.904C192.7 151.296 191.843 151.168 191.235 151.618C190.627 152.067 190.498 152.925 190.948 153.533L193.798 157.386L189.945 160.236Z"/>
</mask>
<path fill-rule="evenodd" clip-rule="evenodd" d="M189.945 160.236C189.337 160.685 189.209 161.543 189.659 162.151C190.109 162.759 190.966 162.887 191.574 162.437L195.427 159.587L198.277 163.44C198.727 164.048 199.584 164.176 200.192 163.726C200.8 163.277 200.928 162.419 200.478 161.811L197.628 157.959L201.481 155.109C202.089 154.659 202.217 153.801 201.768 153.194C201.318 152.586 200.461 152.457 199.853 152.907L196 155.757L193.15 151.904C192.7 151.296 191.843 151.168 191.235 151.618C190.627 152.067 190.498 152.925 190.948 153.533L193.798 157.386L189.945 160.236Z" fill="#FCF3F7"/>
<path d="M189.945 160.236L190.54 161.04L189.945 160.236ZM191.574 162.437L192.169 163.241L191.574 162.437ZM195.427 159.587L196.231 158.993L195.636 158.189L194.832 158.783L195.427 159.587ZM200.478 161.811L201.282 161.217L200.478 161.811ZM197.628 157.959L197.034 157.155L196.23 157.749L196.824 158.553L197.628 157.959ZM201.481 155.109L202.076 155.913L201.481 155.109ZM201.768 153.194L202.572 152.599L201.768 153.194ZM199.853 152.907L200.447 153.711L200.447 153.711L199.853 152.907ZM196 155.757L195.196 156.352L195.791 157.156L196.594 156.561L196 155.757ZM193.15 151.904L192.346 152.499L193.15 151.904ZM190.948 153.533L190.144 154.128L190.948 153.533ZM193.798 157.386L194.393 158.19L195.197 157.595L194.602 156.791L193.798 157.386ZM190.463 161.556C190.342 161.392 190.376 161.161 190.54 161.04L189.351 159.432C188.299 160.21 188.077 161.693 188.855 162.745L190.463 161.556ZM190.979 161.633C190.815 161.755 190.584 161.72 190.463 161.556L188.855 162.745C189.633 163.797 191.117 164.019 192.169 163.241L190.979 161.633ZM194.832 158.783L190.979 161.633L192.169 163.241L196.021 160.391L194.832 158.783ZM199.081 162.845L196.231 158.993L194.623 160.182L197.473 164.035L199.081 162.845ZM199.597 162.923C199.433 163.044 199.202 163.009 199.081 162.845L197.473 164.035C198.251 165.087 199.735 165.309 200.787 164.53L199.597 162.923ZM199.674 162.406C199.796 162.57 199.761 162.801 199.597 162.923L200.787 164.53C201.839 163.752 202.061 162.269 201.282 161.217L199.674 162.406ZM196.824 158.553L199.674 162.406L201.282 161.217L198.432 157.364L196.824 158.553ZM200.886 154.305L197.034 157.155L198.223 158.763L202.076 155.913L200.886 154.305ZM200.964 153.788C201.085 153.952 201.05 154.183 200.886 154.305L202.076 155.913C203.128 155.134 203.35 153.651 202.572 152.599L200.964 153.788ZM200.447 153.711C200.611 153.59 200.842 153.624 200.964 153.788L202.572 152.599C201.793 151.547 200.31 151.325 199.258 152.103L200.447 153.711ZM196.594 156.561L200.447 153.711L199.258 152.103L195.405 154.953L196.594 156.561ZM192.346 152.499L195.196 156.352L196.804 155.162L193.954 151.31L192.346 152.499ZM191.829 152.422C191.993 152.3 192.225 152.335 192.346 152.499L193.954 151.31C193.176 150.258 191.692 150.036 190.64 150.814L191.829 152.422ZM191.752 152.938C191.631 152.774 191.665 152.543 191.829 152.422L190.64 150.814C189.588 151.592 189.366 153.076 190.144 154.128L191.752 152.938ZM194.602 156.791L191.752 152.938L190.144 154.128L192.994 157.98L194.602 156.791ZM190.54 161.04L194.393 158.19L193.203 156.582L189.351 159.432L190.54 161.04Z" fill="#AD2956" mask="url(#path-35-inside-1_298_9854)"/>
</g>
<defs>
<linearGradient id="paint0_linear_298_9854" x1="83.1865" y1="-30.634" x2="163.987" y2="514.34" gradientUnits="userSpaceOnUse">
<stop stop-color="white"/>
<stop offset="1" stop-color="#F1B0CE"/>
</linearGradient>
<linearGradient id="paint1_linear_298_9854" x1="29.3473" y1="23.6841" x2="37.9138" y2="59.1547" gradientUnits="userSpaceOnUse">
<stop stop-color="#FCF3F7"/>
<stop offset="1" stop-color="#F1B0CE"/>
</linearGradient>
<linearGradient id="paint2_linear_298_9854" x1="147.768" y1="6.86247" x2="156.312" y2="42.3364" gradientUnits="userSpaceOnUse">
<stop stop-color="#FCF3F7"/>
<stop offset="1" stop-color="#F1B0CE"/>
</linearGradient>
<linearGradient id="paint3_linear_298_9854" x1="97.1682" y1="-105.42" x2="98.3087" y2="247.476" gradientUnits="userSpaceOnUse">
<stop stop-color="white"/>
<stop offset="1" stop-color="#E77FAD"/>
</linearGradient>
<linearGradient id="paint4_linear_298_9854" x1="172.044" y1="163.804" x2="190.814" y2="167.995" gradientUnits="userSpaceOnUse">
<stop stop-color="white"/>
<stop offset="1" stop-color="#66C8FF"/>
</linearGradient>
<clipPath id="clip0_298_9854">
<rect width="245" height="205" fill="white"/>
</clipPath>
</defs>
</svg>
