<svg width="103" height="102" viewBox="0 0 103 102" fill="none" xmlns="http://www.w3.org/2000/svg">
<path fill-rule="evenodd" clip-rule="evenodd" d="M28.4318 13.9925C31.2637 13.0273 34.2283 12.751 36.85 12.751C43.0751 12.751 47.7685 15.4086 51.5021 18.0761C55.2652 15.3882 59.9273 12.7509 66.2257 12.751C69.0257 12.751 71.8901 13.1424 74.6658 14.0657C91.6209 19.5579 97.0823 37.8129 92.3485 52.808L92.3286 52.8712L92.3067 52.9337C89.687 60.4119 85.4031 67.2418 79.7828 72.8293L79.7586 72.8533L79.734 72.877C71.8852 80.4334 63.0714 87.2593 53.6878 92.8939L51.4724 94.2242L49.2719 92.8695C39.9087 87.1054 31.2612 80.4628 23.3171 72.8447L23.2843 72.8133L23.2522 72.7812C17.68 67.2044 13.3964 60.4246 10.7377 52.9535L10.7155 52.891L10.6952 52.8279C5.86994 37.8 11.3589 19.5669 28.4318 13.9925Z" fill="#C9396E"/>
<circle cx="37.5" cy="43" r="4" fill="#FCF3F7"/>
<circle cx="63.5" cy="43" r="4" fill="#FCF3F7"/>
<path d="M59 62.2978C59 60.0887 53.7091 58.2978 51.5 58.2978C49.2909 58.2978 44 60.0887 44 62.2978C44 64.507 49.2909 60.7979 51.5 60.7979C53.7091 60.7979 59 64.507 59 62.2978Z" fill="#FCF3F7"/>
</svg>
