<svg width="231" height="122" viewBox="0 0 231 122" fill="none" xmlns="http://www.w3.org/2000/svg">
<rect width="209" height="105" rx="20" transform="matrix(1 0 0 -1 0.280823 105)" fill="url(#paint0_linear_271_2522)"/>
<ellipse cx="43.2184" cy="40.2603" rx="23" ry="22.5" fill="white"/>
<rect x="71.2184" y="31.7603" width="122" height="18" rx="9" fill="url(#paint1_linear_271_2522)"/>
<circle cx="192.076" cy="86.0852" r="15.4786" transform="rotate(-51.4915 192.076 86.0852)" fill="#F6F9FF" stroke="#AD2956" stroke-width="3"/>
<rect x="202.987" y="96.9264" width="1.54948" height="19.8106" rx="0.774742" transform="rotate(-51.4915 202.987 96.9264)" fill="#AD2956" stroke="#AD2956" stroke-width="1.54948"/>
<mask id="path-6-inside-1_271_2522" fill="white">
<path fill-rule="evenodd" clip-rule="evenodd" d="M186.164 88.7039C185.556 89.1536 185.428 90.011 185.878 90.619C186.327 91.2269 187.185 91.3552 187.793 90.9055L191.645 88.0555L194.495 91.9083C194.945 92.5162 195.803 92.6445 196.41 92.1948C197.018 91.745 197.147 90.8876 196.697 90.2797L193.847 86.4269L197.7 83.5769C198.308 83.1271 198.436 82.2697 197.986 81.6618C197.537 81.0538 196.679 80.9255 196.071 81.3753L192.218 84.2253L189.368 80.3725C188.919 79.7646 188.061 79.6363 187.453 80.086C186.845 80.5358 186.717 81.3932 187.167 82.0011L190.017 85.8539L186.164 88.7039Z"/>
</mask>
<path fill-rule="evenodd" clip-rule="evenodd" d="M186.164 88.7039C185.556 89.1536 185.428 90.011 185.878 90.619C186.327 91.2269 187.185 91.3552 187.793 90.9055L191.645 88.0555L194.495 91.9083C194.945 92.5162 195.803 92.6445 196.41 92.1948C197.018 91.745 197.147 90.8876 196.697 90.2797L193.847 86.4269L197.7 83.5769C198.308 83.1271 198.436 82.2697 197.986 81.6618C197.537 81.0538 196.679 80.9255 196.071 81.3753L192.218 84.2253L189.368 80.3725C188.919 79.7646 188.061 79.6363 187.453 80.086C186.845 80.5358 186.717 81.3932 187.167 82.0011L190.017 85.8539L186.164 88.7039Z" fill="#FCF3F7"/>
<path d="M186.164 88.7039L186.759 89.5078L186.164 88.7039ZM191.645 88.0555L192.449 87.4608L191.855 86.6568L191.051 87.2515L191.645 88.0555ZM194.495 91.9083L193.691 92.503L194.495 91.9083ZM193.847 86.4269L193.252 85.6229L192.448 86.2176L193.043 87.0216L193.847 86.4269ZM197.986 81.6618L198.79 81.0671L197.986 81.6618ZM196.071 81.3753L196.666 82.1792L196.666 82.1792L196.071 81.3753ZM192.218 84.2253L191.414 84.82L192.009 85.6239L192.813 85.0292L192.218 84.2253ZM190.017 85.8539L190.611 86.6578L191.415 86.0631L190.821 85.2592L190.017 85.8539ZM186.681 90.0243C186.56 89.8603 186.595 89.6291 186.759 89.5078L185.569 87.8999C184.517 88.6781 184.295 90.1617 185.074 91.2137L186.681 90.0243ZM187.198 90.1015C187.034 90.2228 186.803 90.1882 186.681 90.0243L185.074 91.2137C185.852 92.2656 187.335 92.4876 188.387 91.7094L187.198 90.1015ZM191.051 87.2515L187.198 90.1015L188.387 91.7094L192.24 88.8594L191.051 87.2515ZM195.299 91.3135L192.449 87.4608L190.841 88.6502L193.691 92.503L195.299 91.3135ZM195.816 91.3908C195.652 91.5121 195.421 91.4775 195.299 91.3135L193.691 92.503C194.47 93.5549 195.953 93.7769 197.005 92.9987L195.816 91.3908ZM195.893 90.8744C196.014 91.0383 195.98 91.2695 195.816 91.3908L197.005 92.9987C198.057 92.2205 198.279 90.7369 197.501 89.685L195.893 90.8744ZM193.043 87.0216L195.893 90.8744L197.501 89.685L194.651 85.8322L193.043 87.0216ZM197.105 82.7729L193.252 85.6229L194.442 87.2308L198.294 84.3808L197.105 82.7729ZM197.182 82.2565C197.304 82.4204 197.269 82.6516 197.105 82.7729L198.294 84.3808C199.346 83.6026 199.568 82.119 198.79 81.0671L197.182 82.2565ZM196.666 82.1792C196.83 82.0579 197.061 82.0925 197.182 82.2565L198.79 81.0671C198.012 80.0151 196.528 79.7932 195.476 80.5713L196.666 82.1792ZM192.813 85.0292L196.666 82.1792L195.476 80.5713L191.624 83.4214L192.813 85.0292ZM188.564 80.9672L191.414 84.82L193.022 83.6306L190.172 79.7778L188.564 80.9672ZM188.048 80.89C188.212 80.7687 188.443 80.8033 188.564 80.9672L190.172 79.7778C189.394 78.7259 187.911 78.5039 186.859 79.2821L188.048 80.89ZM187.971 81.4064C187.849 81.2425 187.884 81.0113 188.048 80.89L186.859 79.2821C185.807 80.0603 185.585 81.5439 186.363 82.5958L187.971 81.4064ZM190.821 85.2592L187.971 81.4064L186.363 82.5958L189.213 86.4486L190.821 85.2592ZM186.759 89.5078L190.611 86.6578L189.422 85.0499L185.569 87.8999L186.759 89.5078Z" fill="#AD2956" mask="url(#path-6-inside-1_271_2522)"/>
<defs>
<linearGradient id="paint0_linear_271_2522" x1="104.5" y1="0" x2="104.5" y2="105" gradientUnits="userSpaceOnUse">
<stop stop-color="#FCF3F7"/>
<stop offset="1" stop-color="#C9396E"/>
</linearGradient>
<linearGradient id="paint1_linear_271_2522" x1="71.2184" y1="40.7602" x2="265.183" y2="43.4856" gradientUnits="userSpaceOnUse">
<stop stop-color="white"/>
<stop offset="1" stop-color="white" stop-opacity="0"/>
</linearGradient>
</defs>
</svg>
