<svg width="18" height="20" viewBox="0 0 18 20" fill="none" xmlns="http://www.w3.org/2000/svg">
<path fill-rule="evenodd" clip-rule="evenodd" d="M5.75178 3.29961C5.05825 4.09029 4.66667 5.23664 4.66667 6.6V8.33333C4.66667 9.19387 4.27938 9.9088 3.86882 10.4535C3.49335 10.9517 3.02576 11.399 2.65857 11.7502C2.62774 11.7797 2.59761 11.8085 2.56831 11.8366C2.22481 12.1662 2 12.6136 2 13.1333C2 13.6585 2.39364 14 2.77778 14H15.2222C15.6064 14 16 13.6585 16 13.1333C16 12.6136 15.7752 12.1662 15.4317 11.8366C15.4024 11.8085 15.3723 11.7797 15.3414 11.7502C14.9742 11.399 14.5066 10.9517 14.1312 10.4535C13.7206 9.9088 13.3333 9.19387 13.3333 8.33333V6.6C13.3333 5.23664 12.9417 4.09029 12.2482 3.29962C11.5713 2.52782 10.5251 2 9 2C7.47494 2 6.42875 2.52782 5.75178 3.29961ZM4.24822 1.98079C5.34903 0.725779 6.9695 0 9 0C11.0305 0 12.651 0.725779 13.7518 1.98079C14.836 3.21692 15.3333 4.87057 15.3333 6.6V8.33333C15.3333 8.57737 15.4428 8.87094 15.7283 9.24975C16.002 9.61287 16.3573 9.95342 16.7498 10.3296C16.7718 10.3508 16.794 10.372 16.8163 10.3934C17.5 11.0494 18 11.9996 18 13.1333C18 14.67 16.8018 16 15.2222 16H2.77778C1.19824 16 0 14.67 0 13.1333C0 11.9996 0.499968 11.0494 1.18372 10.3934C1.206 10.372 1.22817 10.3508 1.25022 10.3296C1.6427 9.95343 1.99798 9.61287 2.27166 9.24975C2.55716 8.87094 2.66667 8.57737 2.66667 8.33333V6.6C2.66667 4.87057 3.16397 3.21692 4.24822 1.98079Z" fill="#C9396E"/>
<path fill-rule="evenodd" clip-rule="evenodd" d="M6.44303 17.1694C6.90172 16.8618 7.52292 16.9843 7.83053 17.443C7.92991 17.5912 8.08431 17.731 8.29192 17.8345C8.49976 17.938 8.74444 17.9964 9 17.9964C9.25556 17.9964 9.50023 17.938 9.70807 17.8345C9.91568 17.731 10.0701 17.5912 10.1695 17.443C10.4771 16.9843 11.0983 16.8618 11.557 17.1694C12.0157 17.4771 12.1381 18.0983 11.8305 18.557C11.5234 19.0149 11.0944 19.3783 10.6 19.6246C10.1058 19.8708 9.55456 19.9964 9 19.9964C8.44543 19.9964 7.89419 19.8708 7.40003 19.6246C6.90564 19.3783 6.47658 19.0149 6.16946 18.557C5.86186 18.0983 5.98434 17.4771 6.44303 17.1694Z" fill="#C9396E"/>
</svg>
