<svg width="16" height="16" viewBox="0 0 16 16" fill="none" xmlns="http://www.w3.org/2000/svg">
<path fill-rule="evenodd" clip-rule="evenodd" d="M8.00004 4.66668C7.81129 4.66668 7.62358 4.68216 7.43714 4.71153C7.07343 4.76881 6.73215 4.52041 6.67487 4.1567C6.61758 3.793 6.86598 3.45172 7.22969 3.39443C7.481 3.35485 7.73813 3.33334 8.00004 3.33334C9.40666 3.33334 10.6706 3.95166 11.6726 4.67257C12.6799 5.39728 13.4801 6.26684 13.9733 6.86569C14.5204 7.5299 14.5204 8.47012 13.9733 9.13433C13.7525 9.40248 13.4723 9.72218 13.1416 10.0577C12.8831 10.32 12.461 10.323 12.1988 10.0646C11.9365 9.80613 11.9335 9.38403 12.1919 9.12179C12.4903 8.81909 12.744 8.52966 12.9441 8.28664C13.0857 8.11481 13.0857 7.88521 12.9441 7.71338C12.4907 7.1628 11.7734 6.3876 10.8939 5.7549C10.0093 5.11841 9.01724 4.66668 8.00004 4.66668ZM5.27172 5.63883C4.31779 6.28975 3.53852 7.12747 3.05594 7.71338C2.91441 7.88521 2.91441 8.11481 3.05594 8.28664C3.50942 8.83722 4.22671 9.61242 5.10612 10.2451C5.9908 10.8816 6.98284 11.3333 8.00004 11.3333C8.87806 11.3333 9.73861 10.997 10.5316 10.4911L11.2488 11.6151C10.3272 12.2031 9.21763 12.6667 8.00004 12.6667C6.59341 12.6667 5.32947 12.0484 4.32744 11.3274C3.32015 10.6027 2.52 9.73318 2.02676 9.13433C1.47969 8.47012 1.47969 7.5299 2.02676 6.86569C2.55012 6.23027 3.42115 5.28741 4.5202 4.53747L5.27172 5.63883Z" fill="#686466"/>
<path fill-rule="evenodd" clip-rule="evenodd" d="M1.52851 1.52861C1.78886 1.26826 2.21097 1.26826 2.47132 1.52861L14.4713 13.5286C14.7317 13.789 14.7317 14.2111 14.4713 14.4714C14.211 14.7318 13.7889 14.7318 13.5285 14.4714L1.52851 2.47141C1.26816 2.21107 1.26816 1.78896 1.52851 1.52861Z" fill="#686466"/>
<path fill-rule="evenodd" clip-rule="evenodd" d="M5.89565 7.87368C6.2513 7.77839 6.61686 7.98944 6.71215 8.34509C6.77273 8.57116 6.89174 8.7773 7.05724 8.9428C7.22274 9.1083 7.42888 9.22732 7.65496 9.28789C8.0106 9.38319 8.22166 9.74875 8.12636 10.1044C8.03107 10.46 7.66551 10.6711 7.30987 10.5758C6.85772 10.4546 6.44543 10.2166 6.11443 9.88561C5.78344 9.55462 5.5454 9.14233 5.42425 8.69018C5.32895 8.33453 5.54001 7.96898 5.89565 7.87368Z" fill="#686466"/>
</svg>
