<svg width="16" height="16" viewBox="0 0 16 16" fill="none" xmlns="http://www.w3.org/2000/svg">
<path fill-rule="evenodd" clip-rule="evenodd" d="M5.10612 5.7549C4.22671 6.3876 3.50942 7.1628 3.05594 7.71338C2.9144 7.88521 2.91441 8.11481 3.05594 8.28664C3.50942 8.83722 4.22671 9.61242 5.10612 10.2451C5.9908 10.8816 6.98284 11.3333 8.00004 11.3333C9.01724 11.3333 10.0093 10.8816 10.8939 10.2451C11.7734 9.61242 12.4907 8.83722 12.9441 8.28664C13.0857 8.11481 13.0857 7.88521 12.9441 7.71338C12.4907 7.1628 11.7734 6.3876 10.8939 5.7549C10.0093 5.11841 9.01724 4.66668 8.00004 4.66668C6.98284 4.66668 5.9908 5.11841 5.10612 5.7549ZM4.32744 4.67257C5.32947 3.95166 6.59341 3.33334 8.00004 3.33334C9.40666 3.33334 10.6706 3.95166 11.6726 4.67257C12.6799 5.39728 13.4801 6.26684 13.9733 6.86569C14.5204 7.5299 14.5204 8.47012 13.9733 9.13433C13.4801 9.73318 12.6799 10.6027 11.6726 11.3274C10.6706 12.0484 9.40666 12.6667 8.00004 12.6667C6.59341 12.6667 5.32947 12.0484 4.32744 11.3274C3.32015 10.6027 2.52 9.73318 2.02676 9.13433C1.47969 8.47012 1.47969 7.5299 2.02676 6.86569C2.52 6.26684 3.32015 5.39728 4.32744 4.67257Z" fill="#686466"/>
<path fill-rule="evenodd" clip-rule="evenodd" d="M7.99992 6.66668C7.26354 6.66668 6.66659 7.26363 6.66659 8.00001C6.66659 8.73639 7.26354 9.33334 7.99992 9.33334C8.7363 9.33334 9.33325 8.73639 9.33325 8.00001C9.33325 7.26363 8.7363 6.66668 7.99992 6.66668ZM5.33325 8.00001C5.33325 6.52725 6.52716 5.33334 7.99992 5.33334C9.47268 5.33334 10.6666 6.52725 10.6666 8.00001C10.6666 9.47277 9.47268 10.6667 7.99992 10.6667C6.52716 10.6667 5.33325 9.47277 5.33325 8.00001Z" fill="#686466"/>
</svg>
