<svg width="12" height="14" viewBox="0 0 12 14" fill="none" xmlns="http://www.w3.org/2000/svg">
<path fill-rule="evenodd" clip-rule="evenodd" d="M0.666748 2.99998C0.666748 1.52722 1.86066 0.333313 3.33341 0.333313H8.66675C10.1395 0.333313 11.3334 1.52722 11.3334 2.99998V11C11.3334 12.4727 10.1395 13.6666 8.66675 13.6666H3.33341C1.86066 13.6666 0.666748 12.4727 0.666748 11V2.99998ZM3.33341 1.66665C2.59704 1.66665 2.00008 2.2636 2.00008 2.99998V11C2.00008 11.7364 2.59703 12.3333 3.33341 12.3333H8.66675C9.40313 12.3333 10.0001 11.7364 10.0001 11V2.99998C10.0001 2.2636 9.40313 1.66665 8.66675 1.66665H3.33341Z" fill="#686466"/>
<path fill-rule="evenodd" clip-rule="evenodd" d="M3.3335 0.333313H4.42851C5.03501 0.333313 5.6024 0.5908 6.00016 1.02511C6.39792 0.5908 6.96531 0.333313 7.57182 0.333313H8.66683V1.66665H7.57182C7.2697 1.66665 6.9935 1.83734 6.85839 2.10757C6.50478 2.81479 5.49554 2.81479 5.14194 2.10757C5.00682 1.83734 4.73063 1.66665 4.42851 1.66665H3.3335V0.333313Z" fill="#686466"/>
</svg>
