<svg width="32" height="32" viewBox="0 0 32 32" fill="none" xmlns="http://www.w3.org/2000/svg">
<path d="M0 16C0 7.16344 7.16344 0 16 0C24.8366 0 32 7.16344 32 16C32 24.8366 24.8366 32 16 32C7.16344 32 0 24.8366 0 16Z" fill="#C9396E"/>
<path fill-rule="evenodd" clip-rule="evenodd" d="M12.218 11.2376C12.5971 10.1004 13.6613 9.33331 14.86 9.33331H17.1398C18.3385 9.33331 19.4028 10.1004 19.7818 11.2376C19.8243 11.3649 19.9288 11.4617 20.059 11.4942L20.5958 11.6284C21.8128 11.9327 22.6666 13.0262 22.6666 14.2806V19.3333C22.6666 21.1743 21.1742 22.6666 19.3333 22.6666H12.6666C10.8256 22.6666 9.33325 21.1743 9.33325 19.3333V14.2806C9.33325 13.0262 10.187 11.9327 11.404 11.6284L11.9408 11.4942C12.071 11.4617 12.1756 11.3649 12.218 11.2376ZM14.86 10.6666C14.2352 10.6666 13.6805 11.0665 13.4829 11.6592C13.2963 12.219 12.8367 12.6446 12.2642 12.7878L11.7274 12.922C11.104 13.0778 10.6666 13.638 10.6666 14.2806V19.3333C10.6666 20.4379 11.562 21.3333 12.6666 21.3333H19.3333C20.4378 21.3333 21.3333 20.4379 21.3333 19.3333V14.2806C21.3333 13.638 20.8959 13.0778 20.2724 12.922L19.7356 12.7878C19.1632 12.6446 18.7035 12.219 18.5169 11.6592C18.3194 11.0665 17.7646 10.6666 17.1398 10.6666H14.86Z" fill="white"/>
<path fill-rule="evenodd" clip-rule="evenodd" d="M15.9999 15.3333C15.2635 15.3333 14.6666 15.9303 14.6666 16.6667C14.6666 17.403 15.2635 18 15.9999 18C16.7363 18 17.3333 17.403 17.3333 16.6667C17.3333 15.9303 16.7363 15.3333 15.9999 15.3333ZM13.3333 16.6667C13.3333 15.1939 14.5272 14 15.9999 14C17.4727 14 18.6666 15.1939 18.6666 16.6667C18.6666 18.1394 17.4727 19.3333 15.9999 19.3333C14.5272 19.3333 13.3333 18.1394 13.3333 16.6667Z" fill="white"/>
</svg>
