<svg width="20" height="20" viewBox="0 0 20 20" fill="none" xmlns="http://www.w3.org/2000/svg">
<path fill-rule="evenodd" clip-rule="evenodd" d="M10.2286 3.43213C10.079 3.38938 9.92037 3.38938 9.77074 3.43213L5.60407 4.6226C5.24632 4.72482 4.99967 5.05181 4.99967 5.42388V9.90259C4.99967 11.7865 5.90947 13.5544 7.44245 14.6494L9.51531 16.13C9.80506 16.3369 10.1943 16.3369 10.484 16.13L12.5569 14.6494C14.0899 13.5544 14.9997 11.7865 14.9997 9.90259V5.42387C14.9997 5.05181 14.753 4.72482 14.3953 4.6226L10.2286 3.43213ZM9.31287 1.82959C9.76176 1.70134 10.2376 1.70134 10.6865 1.82959L14.8531 3.02006C15.9264 3.32671 16.6663 4.30767 16.6663 5.42387V9.90259C16.6663 12.3247 15.4966 14.5978 13.5256 16.0056L11.4528 17.4862C10.5835 18.1071 9.41582 18.1071 8.54658 17.4862L6.47372 16.0056C4.50275 14.5978 3.33301 12.3247 3.33301 9.90259V5.42388C3.33301 4.30767 4.07295 3.32671 5.1462 3.02006L9.31287 1.82959Z" fill="#C9396E"/>
</svg>
