<svg width="24" height="24" viewBox="0 0 24 24" fill="none" xmlns="http://www.w3.org/2000/svg">
<path fill-rule="evenodd" clip-rule="evenodd" d="M6.57233 3.29212C7.23865 3.06502 7.93622 3 8.55308 3C10.0178 3 11.1221 3.62533 12.0006 4.25297C12.8861 3.62051 13.983 2.99999 15.465 3C16.1238 3 16.7978 3.09209 17.4509 3.30936C21.4404 4.60164 22.7254 8.89691 21.6116 12.4252L21.6069 12.44L21.6017 12.4548C20.9853 14.2143 19.9774 15.8214 18.6549 17.1361L18.6492 17.1417L18.6434 17.1473C16.7967 18.9253 14.7228 20.5314 12.5149 21.8572L11.9937 22.1702L11.4759 21.8514C9.27279 20.4952 7.23807 18.9322 5.36887 17.1397L5.36116 17.1323L5.35361 17.1248C4.04251 15.8126 3.03459 14.2173 2.40901 12.4594L2.40378 12.4447L2.39901 12.4299C1.26366 8.89388 2.55518 4.60375 6.57233 3.29212Z" fill="#C9396E"/>
</svg>
