<svg width="24" height="24" viewBox="0 0 24 24" fill="none" xmlns="http://www.w3.org/2000/svg">
<path fill-rule="evenodd" clip-rule="evenodd" d="M12 10C10.8954 10 10 10.8954 10 12C10 13.1046 10.8954 14 12 14C13.1046 14 14 13.1046 14 12C14 10.8954 13.1046 10 12 10ZM8 12C8 9.79086 9.79086 8 12 8C14.2091 8 16 9.79086 16 12C16 14.2091 14.2091 16 12 16C9.79086 16 8 14.2091 8 12Z" fill="#C9396E"/>
<path fill-rule="evenodd" clip-rule="evenodd" d="M8.72897 4.54104C8.72897 3.13766 9.86663 2 11.27 2H12.7287C14.132 2 15.2697 3.13766 15.2697 4.54104C15.2697 4.74442 15.41 5.01577 15.7452 5.19782C15.8483 5.25384 15.95 5.31209 16.0503 5.37252C16.3846 5.57406 16.6984 5.56113 16.8827 5.45569C18.1065 4.75547 19.666 5.17332 20.3758 6.39162L21.0802 7.60076C21.7913 8.8214 21.3716 10.3877 20.1455 11.0892C19.9677 11.1909 19.8006 11.4496 19.8087 11.8346C19.8099 11.8896 19.8105 11.9448 19.8105 12C19.8105 12.0552 19.8099 12.1104 19.8087 12.1654C19.8006 12.5504 19.9677 12.8091 20.1455 12.9108C21.3716 13.6123 21.7913 15.1786 21.0802 16.3992L20.3757 17.6084C19.666 18.8267 18.1065 19.2445 16.8827 18.5443C16.6984 18.4389 16.3846 18.4259 16.0503 18.6275C15.95 18.6879 15.8483 18.7462 15.7452 18.8022C15.41 18.9842 15.2697 19.2556 15.2697 19.459C15.2697 20.8623 14.132 22 12.7287 22H11.27C9.86663 22 8.72897 20.8623 8.72897 19.459C8.72897 19.2556 8.58871 18.9842 8.25351 18.8022C8.15036 18.7462 8.04863 18.6879 7.94839 18.6275C7.61408 18.4259 7.30025 18.4389 7.11599 18.5443C5.8922 19.2445 4.33272 18.8267 3.62297 17.6084L2.91853 16.3992C2.20742 15.1786 2.62708 13.6123 3.85322 12.9108C4.03098 12.8091 4.19812 12.5504 4.18998 12.1654C4.18881 12.1104 4.18823 12.0553 4.18823 12C4.18823 11.9448 4.18881 11.8896 4.18998 11.8346C4.19812 11.4497 4.03097 11.191 3.8532 11.0892C2.62705 10.3877 2.20738 8.82141 2.9185 7.60077L3.62292 6.39163C4.33267 5.17333 5.89217 4.75548 7.11596 5.4557C7.30023 5.56113 7.61407 5.57407 7.94838 5.37253C8.04863 5.3121 8.15036 5.25384 8.25351 5.19782C8.58871 5.01577 8.72897 4.74442 8.72897 4.54104ZM13.499 9C13.2002 9 11.27 8.30873 11.27 8.60754C11.27 9.71358 11.3145 8.55712 10.499 9C10.4223 9.04169 9.07364 9.95502 8.99902 10C8.20356 10.4795 10.4598 11.0497 9.49902 10.5C9.22867 10.3453 9.15582 10.7309 8.99902 11L8.72897 11.3288C8.57695 11.5898 8.2369 11.35 8.49902 11.5C9.46133 12.0506 9.22766 11.5718 9.20802 12.5C9.20716 12.5409 9.20802 12.5 9.49902 12.5C9.49902 12.5 8.7281 12.7728 8.72897 12.8137C8.74861 13.7419 10.4613 13.4494 9.49902 14C9.23691 14.15 9.84701 14.2391 9.99902 14.5C10.1558 14.7691 10.2287 14.6547 10.499 14.5C10.999 14.5 10.7708 14.7097 10.8475 14.7514C11.663 15.1943 11.27 14.1797 11.27 15.2857C11.27 15.5845 11.2002 15 11.499 15L12.7287 14.7514C13.0275 14.7514 13.999 14.2988 13.999 14C13.999 12.894 12.6836 15.4429 13.499 15C13.499 15 13.9244 14.045 13.999 14C14.7945 13.5205 13.6629 13.0435 14.6237 13.5932C14.894 13.7479 14.3422 13.7691 14.499 13.5C14.651 13.2391 14.7611 13.15 14.499 13C13.5367 12.4494 14.7907 12.9108 14.7907 12.9108C14.7915 12.8699 14.7907 12.9267 14.7907 12.9267C14.7907 12.9267 14.7898 12.9517 14.7907 12.9108C14.7907 12.9267 14.7907 12.9267 14.7907 12.9108C14.9427 13.1717 15.0528 12.7608 14.7907 12.9108L15.0177 11.5C14.8609 11.2309 15.0177 11.5 14.999 11.5C15.0177 11.5 14.2945 9.47953 13.499 9C13.499 10.106 12.6836 8.55712 13.499 9C13.499 8.70119 13.7788 8.99504 13.4799 8.99504L13.499 9Z" fill="#C9396E"/>
</svg>
