<svg width="25" height="24" viewBox="0 0 25 24" fill="none" xmlns="http://www.w3.org/2000/svg">
<path d="M11.8335 3H13.8335C14.3858 3 14.8335 3.44772 14.8335 4V4.56879C14.8335 4.99659 15.1206 5.36825 15.5157 5.53228C15.911 5.69638 16.3712 5.63384 16.6738 5.33123L17.0761 4.92891C17.4666 4.53838 18.0998 4.53838 18.4903 4.92891L19.9045 6.34312C20.295 6.73365 20.295 7.36681 19.9045 7.75734L19.5023 8.1596C19.1996 8.46223 19.1371 8.92247 19.3012 9.31774C19.4652 9.71287 19.8369 10 20.2648 10L20.8335 10C21.3858 10 21.8335 10.4477 21.8335 11V13C21.8335 13.5523 21.3858 14 20.8335 14H20.2647C19.8369 14 19.4652 14.2871 19.3012 14.6822C19.1371 15.0775 19.1996 15.5377 19.5023 15.8403L19.9045 16.2426C20.2951 16.6331 20.2951 17.2663 19.9045 17.6568L18.4903 19.071C18.0998 19.4616 17.4666 19.4616 17.0761 19.071L16.6738 18.6688C16.3712 18.3661 15.911 18.3036 15.5157 18.4677C15.1206 18.6318 14.8335 19.0034 14.8335 19.4312V20C14.8335 20.5523 14.3858 21 13.8335 21H11.8335C11.2812 21 10.8335 20.5523 10.8335 20V19.4313C10.8335 19.0034 10.5464 18.6317 10.1512 18.4677C9.75596 18.3036 9.29573 18.3661 8.99309 18.6688L8.59082 19.071C8.20029 19.4616 7.56713 19.4616 7.1766 19.071L5.76239 17.6568C5.37186 17.2663 5.37186 16.6331 5.76239 16.2426L6.16472 15.8403C6.46734 15.5377 6.52988 15.0775 6.36578 14.6822C6.20174 14.2871 5.83008 14 5.40228 14H4.8335C4.28121 14 3.8335 13.5523 3.8335 13V11C3.8335 10.4477 4.28121 10 4.8335 10L5.40226 10C5.83007 10 6.20175 9.71288 6.36579 9.31776C6.52989 8.9225 6.46735 8.46229 6.16473 8.15966L5.7624 7.75734C5.37188 7.36681 5.37188 6.73365 5.7624 6.34313L7.17662 4.92891C7.56714 4.53839 8.20031 4.53839 8.59083 4.92891L8.99315 5.33123C9.29578 5.63386 9.756 5.6964 10.1513 5.53229C10.5464 5.36825 10.8335 4.99658 10.8335 4.56876V4C10.8335 3.44772 11.2812 3 11.8335 3Z" stroke="#5A605F" stroke-width="1.5"/>
<path d="M14.8335 12C14.8335 13.1046 13.9381 14 12.8335 14C11.7289 14 10.8335 13.1046 10.8335 12C10.8335 10.8954 11.7289 10 12.8335 10C13.9381 10 14.8335 10.8954 14.8335 12Z" stroke="#5A605F" stroke-width="1.5"/>
</svg>
