<svg width="24" height="24" viewBox="0 0 24 24" fill="none" xmlns="http://www.w3.org/2000/svg">
<path fill-rule="evenodd" clip-rule="evenodd" d="M12 10C10.8954 10 10 10.8954 10 12C10 13.1046 10.8954 14 12 14C13.1046 14 14 13.1046 14 12C14 10.8954 13.1046 10 12 10ZM8 12C8 9.79086 9.79086 8 12 8C14.2091 8 16 9.79086 16 12C16 14.2091 14.2091 16 12 16C9.79086 16 8 14.2091 8 12Z" fill="#686466"/>
<path fill-rule="evenodd" clip-rule="evenodd" d="M8.72897 4.54104C8.72897 3.13766 9.86663 2 11.27 2H12.7287C14.132 2 15.2697 3.13766 15.2697 4.54104C15.2697 4.74442 15.41 5.01577 15.7452 5.19782C15.8483 5.25384 15.95 5.31209 16.0503 5.37252C16.3846 5.57406 16.6984 5.56113 16.8827 5.45569C18.1065 4.75547 19.666 5.17332 20.3758 6.39162L21.0802 7.60076C21.7913 8.8214 21.3716 10.3877 20.1455 11.0892C19.9677 11.1909 19.8006 11.4496 19.8087 11.8346C19.8099 11.8896 19.8105 11.9448 19.8105 12C19.8105 12.0552 19.8099 12.1104 19.8087 12.1654C19.8006 12.5504 19.9677 12.8091 20.1455 12.9108C21.3716 13.6123 21.7913 15.1786 21.0802 16.3992L20.3757 17.6084C19.666 18.8267 18.1065 19.2445 16.8827 18.5443C16.6984 18.4389 16.3846 18.4259 16.0503 18.6275C15.95 18.6879 15.8483 18.7462 15.7452 18.8022C15.41 18.9842 15.2697 19.2556 15.2697 19.459C15.2697 20.8623 14.132 22 12.7287 22H11.27C9.86663 22 8.72897 20.8623 8.72897 19.459C8.72897 19.2556 8.58871 18.9842 8.25351 18.8022C8.15036 18.7462 8.04863 18.6879 7.94839 18.6275C7.61408 18.4259 7.30025 18.4389 7.11599 18.5443C5.8922 19.2445 4.33272 18.8267 3.62297 17.6084L2.91853 16.3992C2.20742 15.1786 2.62708 13.6123 3.85322 12.9108C4.03098 12.8091 4.19812 12.5504 4.18998 12.1654C4.18881 12.1104 4.18823 12.0553 4.18823 12C4.18823 11.9448 4.18881 11.8896 4.18998 11.8346C4.19812 11.4497 4.03097 11.191 3.8532 11.0892C2.62705 10.3877 2.20738 8.82141 2.9185 7.60077L3.62292 6.39163C4.33267 5.17333 5.89217 4.75548 7.11596 5.4557C7.30023 5.56113 7.61407 5.57407 7.94838 5.37253C8.04863 5.3121 8.15036 5.25384 8.25351 5.19782C8.58871 5.01577 8.72897 4.74442 8.72897 4.54104ZM11.27 4C10.9712 4 10.729 4.24223 10.729 4.54104C10.729 5.64708 10.0235 6.51246 9.20802 6.95535C9.13126 6.99703 9.05555 7.04039 8.98094 7.08537C8.18547 7.5649 7.08346 7.74134 6.12272 7.19163C5.85236 7.03694 5.50784 7.12925 5.35104 7.39839L4.64663 8.60754C4.4946 8.86848 4.58432 9.20332 4.84645 9.3533C5.80876 9.90391 6.20916 10.9487 6.18953 11.8769C6.18866 11.9178 6.18823 11.9589 6.18823 12C6.18823 12.0412 6.18866 12.0822 6.18953 12.1231C6.20917 13.0513 5.80877 14.0961 4.84646 14.6467C4.58435 14.7967 4.49464 15.1315 4.64665 15.3924L5.35109 16.6016C5.50789 16.8708 5.8524 16.9631 6.12275 16.8084C7.08349 16.2587 8.18548 16.4351 8.98095 16.9146C9.05556 16.9596 9.13127 17.003 9.20802 17.0447C10.0235 17.4875 10.729 18.3529 10.729 19.459C10.729 19.7578 10.9712 20 11.27 20H12.7287C13.0275 20 13.2697 19.7578 13.2697 19.459C13.2697 18.3529 13.9752 17.4875 14.7907 17.0447C14.8674 17.003 14.9431 16.9596 15.0177 16.9146C15.8132 16.4351 16.9152 16.2587 17.8759 16.8084C18.1463 16.9631 18.4908 16.8708 18.6476 16.6016L19.352 15.3924C19.504 15.1315 19.4143 14.7967 19.1522 14.6467C18.1899 14.0961 17.7895 13.0513 17.8091 12.1231C17.81 12.0822 17.8104 12.0412 17.8104 12C17.8104 11.9589 17.81 11.9178 17.8091 11.8769C17.7895 10.9487 18.1899 9.9039 19.1522 9.35329C19.4144 9.20331 19.5041 8.86848 19.3521 8.60753L18.6476 7.39839C18.4908 7.12924 18.1463 7.03693 17.876 7.19162C16.9152 7.74134 15.8132 7.5649 15.0177 7.08536C14.9431 7.04039 14.8674 6.99703 14.7907 6.95535C13.9752 6.51246 13.2697 5.64708 13.2697 4.54104C13.2697 4.24223 13.0275 4 12.7287 4H11.27Z" fill="#686466"/>
</svg>
