<svg width="12" height="13" viewBox="0 0 12 13" fill="none" xmlns="http://www.w3.org/2000/svg">
<path fill-rule="evenodd" clip-rule="evenodd" d="M4.85762 1.60578C5.37583 0.744687 6.62423 0.744688 7.14244 1.60578L8.40056 3.69634L10.7776 4.24687C11.7567 4.47362 12.1424 5.66092 11.4836 6.41986L9.88417 8.26242L10.0951 10.6932C10.182 11.6945 9.17205 12.4283 8.24667 12.0362L6.00003 11.0844L3.75339 12.0362C2.828 12.4283 1.81803 11.6945 1.90493 10.6932L2.11589 8.26242L0.516427 6.41986C-0.142385 5.66092 0.243392 4.47362 1.22248 4.24687L3.5995 3.69634L4.85762 1.60578ZM6.00003 2.29329L4.74191 4.38386C4.55574 4.69321 4.25208 4.91383 3.90034 4.99529L1.52332 5.54582L3.12278 7.38838C3.35946 7.66103 3.47545 8.01801 3.44423 8.37771L3.23327 10.8085L5.47991 9.85671C5.81236 9.71587 6.18771 9.71587 6.52015 9.85671L8.76679 10.8085L8.55583 8.37771C8.52461 8.01801 8.6406 7.66103 8.87728 7.38838L10.4767 5.54582L8.09972 4.99529C7.74798 4.91383 7.44432 4.69321 7.25815 4.38386L6.00003 2.29329Z" fill="#FFA93E"/>
</svg>
