<svg width="20" height="20" viewBox="0 0 20 20" fill="none" xmlns="http://www.w3.org/2000/svg">
<path fill-rule="evenodd" clip-rule="evenodd" d="M10.0003 3.33366C6.31843 3.33366 3.33366 6.31843 3.33366 10.0003C3.33366 11.4104 3.77053 12.716 4.5163 13.7923C4.7631 14.1485 4.8226 14.624 4.6271 15.0446L3.87307 16.667H10.0003C13.6822 16.667 16.667 13.6822 16.667 10.0003C16.667 6.31843 13.6822 3.33366 10.0003 3.33366ZM1.66699 10.0003C1.66699 5.39795 5.39795 1.66699 10.0003 1.66699C14.6027 1.66699 18.3337 5.39795 18.3337 10.0003C18.3337 14.6027 14.6027 18.3337 10.0003 18.3337H3.21832C2.27313 18.3337 1.67521 17.3281 2.11204 16.5016L3.01845 14.5514C2.16383 13.2427 1.66699 11.6784 1.66699 10.0003Z" fill="#C9396E"/>
<path fill-rule="evenodd" clip-rule="evenodd" d="M6.66699 11.6663C6.66699 11.2061 7.04009 10.833 7.50033 10.833H12.5003C12.9606 10.833 13.3337 11.2061 13.3337 11.6663C13.3337 12.1266 12.9606 12.4997 12.5003 12.4997H7.50033C7.04009 12.4997 6.66699 12.1266 6.66699 11.6663Z" fill="#C9396E"/>
<path fill-rule="evenodd" clip-rule="evenodd" d="M6.66699 8.33333C6.66699 7.8731 7.04009 7.5 7.50033 7.5H9.16699C9.62723 7.5 10.0003 7.8731 10.0003 8.33333C10.0003 8.79357 9.62723 9.16667 9.16699 9.16667H7.50033C7.04009 9.16667 6.66699 8.79357 6.66699 8.33333Z" fill="#C9396E"/>
</svg>
