<svg width="16" height="16" viewBox="0 0 16 16" fill="none" xmlns="http://www.w3.org/2000/svg">
<path fill-rule="evenodd" clip-rule="evenodd" d="M3.28661 3.28612C4.49231 2.08042 6.15989 1.3335 8.00065 1.3335C9.84142 1.3335 11.509 2.08042 12.7147 3.28612C13.9204 4.49182 14.6673 6.1594 14.6673 8.00016C14.6673 9.84093 13.9204 11.5085 12.7147 12.7142C11.509 13.9199 9.84142 14.6668 8.00065 14.6668C6.15989 14.6668 4.49231 13.9199 3.28661 12.7142C2.08091 11.5085 1.33398 9.84093 1.33398 8.00016C1.33398 6.1594 2.08091 4.49182 3.28661 3.28612ZM8.00065 2.66683C6.52771 2.66683 5.19529 3.26305 4.22941 4.22893C3.26354 5.1948 2.66732 6.52722 2.66732 8.00016C2.66732 9.47311 3.26354 10.8055 4.22941 11.7714C5.19529 12.7373 6.52771 13.3335 8.00065 13.3335C9.47359 13.3335 10.806 12.7373 11.7719 11.7714C12.7378 10.8055 13.334 9.47311 13.334 8.00016C13.334 6.52722 12.7378 5.1948 11.7719 4.22893C10.806 3.26305 9.47359 2.66683 8.00065 2.66683Z" fill="#686466"/>
<path fill-rule="evenodd" clip-rule="evenodd" d="M8.00065 4.6665C8.36884 4.6665 8.66732 4.96498 8.66732 5.33317V7.99984C8.66732 8.36803 8.36884 8.6665 8.00065 8.6665C7.63246 8.6665 7.33398 8.36803 7.33398 7.99984L7.33398 5.33317C7.33398 4.96498 7.63246 4.6665 8.00065 4.6665Z" fill="#686466"/>
<path fill-rule="evenodd" clip-rule="evenodd" d="M7.52925 7.52876C7.7896 7.26841 8.21171 7.26841 8.47206 7.52876L9.80539 8.86209C10.0657 9.12244 10.0657 9.54455 9.80539 9.8049C9.54504 10.0652 9.12293 10.0652 8.86258 9.8049L7.52925 8.47157C7.2689 8.21122 7.2689 7.78911 7.52925 7.52876Z" fill="#686466"/>
</svg>
