<svg width="23" height="24" viewBox="0 0 23 24" fill="none" xmlns="http://www.w3.org/2000/svg">
<path fill-rule="evenodd" clip-rule="evenodd" d="M18.3852 14.357C19.6869 13.0553 19.6869 10.9447 18.3852 9.64298L13.6711 4.92893C12.3694 3.62718 10.2588 3.62718 8.95707 4.92893L4.24303 9.64298C2.94128 10.9447 2.94128 13.0553 4.24303 14.357L8.95707 19.0711C10.2588 20.3728 12.3694 20.3728 13.6711 19.0711L18.3852 14.357ZM17.4424 10.5858C18.2234 11.3668 18.2234 12.6332 17.4424 13.4142L12.7283 18.1283C11.9473 18.9093 10.6809 18.9093 9.89988 18.1283L5.18584 13.4142C4.40479 12.6332 4.40479 11.3668 5.18584 10.5858L9.89988 5.87174C10.6809 5.09069 11.9473 5.09069 12.7283 5.87174L17.4424 10.5858Z" fill="#C9396E"/>
<path fill-rule="evenodd" clip-rule="evenodd" d="M13.6703 9.64298C13.5453 9.51795 13.3757 9.44772 13.1989 9.44772L9.42768 9.44772C9.05949 9.44772 8.76101 9.74619 8.76101 10.1144C8.76101 10.4826 9.05949 10.781 9.42768 10.781L11.5894 10.781L8.95628 13.4142C8.69593 13.6746 8.69593 14.0967 8.95628 14.357C9.21663 14.6174 9.63874 14.6174 9.89909 14.357L12.5323 11.7239L12.5323 13.8856C12.5323 14.2538 12.8307 14.5523 13.1989 14.5523C13.5671 14.5523 13.8656 14.2538 13.8656 13.8856V10.1144C13.8656 9.93757 13.7953 9.768 13.6703 9.64298Z" fill="#C9396E"/>
</svg>
