<svg width="19" height="18" viewBox="0 0 19 18" fill="none" xmlns="http://www.w3.org/2000/svg">
<path fill-rule="evenodd" clip-rule="evenodd" d="M7.78618 1.90818C8.56351 0.616543 10.4361 0.616544 11.2134 1.90818L13.1006 5.04403L16.6661 5.86981C18.1348 6.20995 18.7134 7.99089 17.7252 9.1293L15.326 11.8931L15.6425 15.5394C15.7728 17.0412 14.2578 18.1419 12.8698 17.5538L9.4998 16.1261L6.12984 17.5538C4.74176 18.1419 3.22681 17.0412 3.35715 15.5394L3.67359 11.8931L1.2744 9.1293C0.286179 7.99089 0.864844 6.20995 2.33347 5.86981L5.89901 5.04403L7.78618 1.90818ZM9.4998 2.93945L7.61262 6.0753C7.33337 6.53932 6.87787 6.87026 6.35026 6.99245L2.78473 7.81824L5.18392 10.5821C5.53894 10.9911 5.71293 11.5265 5.6661 12.0661L5.34966 15.7123L8.71962 14.2846C9.21829 14.0733 9.78131 14.0733 10.28 14.2846L13.6499 15.7123L13.3335 12.0661C13.2867 11.5265 13.4607 10.9911 13.8157 10.5821L16.2149 7.81824L12.6493 6.99245C12.1217 6.87026 11.6662 6.53932 11.387 6.0753L9.4998 2.93945Z" fill="#686466"/>
</svg>
