<svg width="16" height="16" viewBox="0 0 16 16" fill="none" xmlns="http://www.w3.org/2000/svg">
<path fill-rule="evenodd" clip-rule="evenodd" d="M7.52892 1.52827C7.78927 1.26792 8.21138 1.26792 8.47173 1.52827L11.1384 4.19494C11.3987 4.45529 11.3987 4.8774 11.1384 5.13775C10.878 5.3981 10.4559 5.3981 10.1956 5.13775L8.00033 2.94248L5.80506 5.13775C5.54471 5.3981 5.1226 5.3981 4.86225 5.13775C4.6019 4.8774 4.6019 4.45529 4.86225 4.19494L7.52892 1.52827Z" fill="#686466"/>
<path fill-rule="evenodd" clip-rule="evenodd" d="M7.99967 1.33301C8.36786 1.33301 8.66634 1.63148 8.66634 1.99967V9.99967C8.66634 10.3679 8.36786 10.6663 7.99967 10.6663C7.63148 10.6663 7.33301 10.3679 7.33301 9.99967V1.99967C7.33301 1.63148 7.63148 1.33301 7.99967 1.33301Z" fill="#686466"/>
<path fill-rule="evenodd" clip-rule="evenodd" d="M3.33366 8C3.70185 8 4.00033 8.29848 4.00033 8.66667V12C4.00033 12.7364 4.59728 13.3333 5.33366 13.3333H10.667C11.4034 13.3333 12.0003 12.7364 12.0003 12V8.66667C12.0003 8.29848 12.2988 8 12.667 8C13.0352 8 13.3337 8.29848 13.3337 8.66667V12C13.3337 13.4728 12.1398 14.6667 10.667 14.6667H5.33366C3.8609 14.6667 2.66699 13.4728 2.66699 12V8.66667C2.66699 8.29848 2.96547 8 3.33366 8Z" fill="#686466"/>
</svg>
