<svg width="12" height="14" viewBox="0 0 12 14" fill="none" xmlns="http://www.w3.org/2000/svg">
<path fill-rule="evenodd" clip-rule="evenodd" d="M0.666748 11.6667C0.666748 9.82573 2.15913 8.33334 4.00008 8.33334H8.00008C9.84103 8.33334 11.3334 9.82573 11.3334 11.6667C11.3334 12.7712 10.438 13.6667 9.33341 13.6667H2.66675C1.56218 13.6667 0.666748 12.7712 0.666748 11.6667ZM4.00008 9.66668C2.89551 9.66668 2.00008 10.5621 2.00008 11.6667C2.00008 12.0349 2.29856 12.3333 2.66675 12.3333H9.33341C9.7016 12.3333 10.0001 12.0349 10.0001 11.6667C10.0001 10.5621 9.10465 9.66668 8.00008 9.66668H4.00008Z" fill="#686466"/>
<path fill-rule="evenodd" clip-rule="evenodd" d="M6.00008 1.66668C4.89551 1.66668 4.00008 2.56211 4.00008 3.66668C4.00008 4.77125 4.89551 5.66668 6.00008 5.66668C7.10465 5.66668 8.00008 4.77125 8.00008 3.66668C8.00008 2.56211 7.10465 1.66668 6.00008 1.66668ZM2.66675 3.66668C2.66675 1.82573 4.15913 0.333344 6.00008 0.333344C7.84103 0.333344 9.33341 1.82573 9.33341 3.66668C9.33341 5.50763 7.84103 7.00001 6.00008 7.00001C4.15913 7.00001 2.66675 5.50763 2.66675 3.66668Z" fill="#686466"/>
</svg>
