<svg width="20" height="20" viewBox="0 0 20 20" fill="none" xmlns="http://www.w3.org/2000/svg">
<path fill-rule="evenodd" clip-rule="evenodd" d="M1.66602 5.83317C1.66602 3.53198 3.5315 1.6665 5.83268 1.6665H14.166C16.4672 1.6665 18.3327 3.53198 18.3327 5.83317V14.1665C18.3327 16.4677 16.4672 18.3332 14.166 18.3332H5.83268C3.5315 18.3332 1.66602 16.4677 1.66602 14.1665V5.83317ZM5.83268 3.33317C4.45197 3.33317 3.33268 4.45246 3.33268 5.83317V14.1665C3.33268 15.5472 4.45197 16.6665 5.83268 16.6665H14.166C15.5467 16.6665 16.666 15.5472 16.666 14.1665V5.83317C16.666 4.45246 15.5467 3.33317 14.166 3.33317H5.83268Z" fill="#C9396E"/>
<path fill-rule="evenodd" clip-rule="evenodd" d="M9.16602 9.99984C9.16602 8.15889 10.6584 6.6665 12.4993 6.6665H16.666C17.5865 6.6665 18.3327 7.4127 18.3327 8.33317V11.6665C18.3327 12.587 17.5865 13.3332 16.666 13.3332H12.4993C10.6584 13.3332 9.16602 11.8408 9.16602 9.99984ZM12.4993 8.33317C11.5789 8.33317 10.8327 9.07936 10.8327 9.99984C10.8327 10.9203 11.5789 11.6665 12.4993 11.6665H16.666V8.33317H12.4993Z" fill="#C9396E"/>
<path fill-rule="evenodd" clip-rule="evenodd" d="M11.666 9.99984C11.666 9.5396 12.0391 9.1665 12.4993 9.1665L12.5827 9.1665C13.0429 9.1665 13.416 9.5396 13.416 9.99984C13.416 10.4601 13.0429 10.8332 12.5827 10.8332L12.4993 10.8332C12.0391 10.8332 11.666 10.4601 11.666 9.99984Z" fill="#C9396E"/>
</svg>
